<?xml version="1.0" encoding="iso-8859-1"?>
<!-- Generator: Adobe Illustrator 18.1.1, SVG Export Plug-In . SVG Version: 6.00 Build 0)  -->
<svg version="1.1" xmlns="http://www.w3.org/2000/svg" xmlns:xlink="http://www.w3.org/1999/xlink" x="0px" y="0px"
	 viewBox="0 0 26.219 26.219" style="enable-background:new 0 0 26.219 26.219;" xml:space="preserve">
<g id="Layer_2">
	<path style="fill:#d7df23;" d="M14.163,11.372c0,0.384-0.037,0.821-0.111,1.313c-0.074,0.491-0.158,1.012-0.251,1.559
		c-0.093,0.548-0.176,1.106-0.25,1.676c-0.075,0.569-0.112,1.12-0.112,1.652c0,0.26,0.047,0.458,0.14,0.594
		c0.093,0.137,0.244,0.205,0.455,0.205c0.104,0,0.218-0.033,0.339-0.098c0.12-0.065,0.242-0.17,0.366-0.315s0.244-0.336,0.362-0.571
		c0.117-0.235,0.223-0.52,0.315-0.854l0.538,0.111c-0.056,0.266-0.144,0.555-0.264,0.867c-0.121,0.312-0.277,0.604-0.469,0.873
		c-0.192,0.269-0.423,0.493-0.692,0.673c-0.269,0.18-0.58,0.27-0.933,0.27c-1.145,0-1.717-0.597-1.717-1.79
		c0-0.55,0.038-1.088,0.115-1.613c0.078-0.525,0.163-1.047,0.256-1.562c0.093-0.517,0.178-1.035,0.255-1.558
		s0.116-1.053,0.116-1.591c0-0.08-0.008-0.17-0.023-0.269c-0.016-0.1-0.042-0.192-0.079-0.278c-0.037-0.087-0.089-0.159-0.157-0.218
		s-0.158-0.089-0.27-0.089c-0.105,0-0.218,0.033-0.339,0.098c-0.12,0.064-0.244,0.169-0.371,0.313
		c-0.127,0.146-0.249,0.334-0.366,0.568c-0.118,0.234-0.224,0.518-0.316,0.85l-0.528-0.111c0.043-0.223,0.12-0.487,0.231-0.794
		c0.111-0.306,0.265-0.6,0.46-0.882c0.194-0.281,0.432-0.52,0.71-0.715c0.278-0.194,0.609-0.292,0.993-0.292
		c0.266,0,0.5,0.048,0.701,0.144c0.2,0.097,0.368,0.23,0.501,0.404c0.133,0.173,0.232,0.38,0.297,0.622
		C14.131,10.806,14.163,11.074,14.163,11.372z M14.655,6.378c0,0.16-0.028,0.306-0.084,0.436s-0.13,0.242-0.223,0.335
		s-0.201,0.165-0.325,0.218s-0.254,0.079-0.39,0.079c-0.143,0-0.273-0.026-0.395-0.079c-0.12-0.053-0.228-0.125-0.32-0.218
		s-0.165-0.205-0.218-0.335s-0.079-0.275-0.079-0.436c0-0.161,0.028-0.309,0.084-0.441s0.131-0.247,0.227-0.344
		c0.097-0.096,0.206-0.17,0.33-0.223c0.124-0.052,0.254-0.079,0.39-0.079c0.297,0,0.538,0.098,0.725,0.293
		C14.562,5.779,14.655,6.043,14.655,6.378z"/>
	<circle style="fill:none;stroke:#d7df23;stroke-miterlimit:10;" cx="13.109" cy="13.109" r="12.609"/>
</g>
<g id="Layer_1">
</g>
</svg>
