<?xml version="1.0" encoding="iso-8859-1"?>
<!-- Generator: Adobe Illustrator 18.1.1, SVG Export Plug-In . SVG Version: 6.00 Build 0)  -->
<svg version="1.1" xmlns="http://www.w3.org/2000/svg" xmlns:xlink="http://www.w3.org/1999/xlink" x="0px" y="0px"
	 viewBox="0 0 106.219 10.002" style="enable-background:new 0 0 106.219 10.002;" xml:space="preserve">
<g id="Layer_2">
	<path d="M0,9.235h0.456c0.635,0,0.708-0.06,0.708-0.636V1.463c0-0.576-0.072-0.635-0.708-0.635H0V0.72h5.481
		c0.216,0,0.264,0.024,0.36,0.108h0.012L5.805,0.012L5.925,0l0.252,3.514h-0.24l-0.06-0.84C5.805,1.379,4.762,0.936,3.49,0.936
		H1.895v0.012c0.156,0.144,0.288,0.36,0.288,0.624v3.574H2.71c0.744,0,1.643-0.12,1.643-1.271V3.154h0.12v3.97h-0.12V6.632
		c0-0.828-0.576-1.271-1.643-1.271H2.183v3.238c0,0.576,0.084,0.636,0.719,0.636h0.852v0.108H0V9.235z"/>
	<path d="M6.684,9.235H7.14c0.635,0,0.708-0.048,0.708-0.624v-7.16c0-0.576-0.072-0.624-0.708-0.624H6.684V0.72h3.358v0.132H9.586
		c-0.635,0-0.719,0.048-0.719,0.624v7.136c0,0.576,0.084,0.624,0.719,0.624h0.456v0.108H6.684V9.235z"/>
	<path d="M10.428,9.271h0.456c0.636,0,0.708-0.06,0.708-0.636V1.499c0-0.576-0.072-0.636-0.708-0.636h-0.456V0.755h3.442
		c2.111,0,3.514,1.02,3.514,2.543c0,1.463-1.223,2.338-2.807,2.47l-0.264,0.012v0.072c0.552,0.048,1.271,0.576,2.075,1.224
		c1.092,0.875,2.399,2.17,4.246,2.17c1.56,0,2.387-0.719,2.387-2.051c0-2.075-4.33-2.075-4.33-4.617
		c0-1.164,1.032-1.943,2.591-1.943c0.792,0,1.343,0.251,1.751,0.527c0.096,0.06,0.204,0.24,0.216,0.276l0.096-0.024
		c-0.024-0.084-0.048-0.216-0.06-0.384l-0.036-0.636h0.132l0.144,2.831l-0.24,0.012l-0.024-0.504
		c-0.048-0.947-0.672-1.883-1.979-1.883c-1.067,0-1.667,0.516-1.667,1.463c0,2.003,4.401,1.979,4.401,4.678
		c0,1.475-1.427,2.458-3.562,2.458c-2.411,0-3.958-1.08-5.025-1.931c-1.067-0.852-1.667-1.715-2.195-1.715h-0.083V5.601h0.6
		c1.607,0,2.471-0.816,2.471-2.339c0-1.511-0.864-2.327-2.471-2.327h-1.367v0.012c0.156,0.144,0.216,0.348,0.216,0.624v7.028
		c0,0.576,0.084,0.636,0.719,0.636h0.768v0.108h-3.67L10.428,9.271z"/>
	<path d="M29.23,2.411c0-1.031-0.54-1.571-1.56-1.571c-1.307,0-1.991,0.696-2.039,1.631l-0.036,0.744h-0.24L25.5,0.384h0.132
		L25.596,1.02c-0.024,0.167-0.036,0.3-0.06,0.384l0.096,0.024c0.012-0.036,0.12-0.216,0.204-0.276
		c0.408-0.276,1.032-0.528,1.823-0.528c1.703,0,2.626,0.684,2.626,1.943v5.925c0,0.48,0.036,0.612,0.432,0.612
		c0.084,0,0.168-0.012,0.264-0.012l0.228-0.012l0.012,0.108c-0.648,0.06-1.091,0.156-1.463,0.264V9.355
		c0-0.54-0.24-1.439-0.252-1.859h-0.132c-0.396,1.439-1.259,1.943-2.219,1.943c-1.415,0-2.482-0.792-2.482-1.967
		c0-1.499,1.403-2.495,3.526-2.495h1.032V2.411z M28.27,5.193c-1.475,0-2.458,0.912-2.458,2.279c0,0.983,0.612,1.643,1.511,1.643
		c0.923,0,1.907-0.768,1.907-2.482V5.193H28.27z"/>
	<path d="M31.68,9.235h0.456c0.636,0,0.708-0.06,0.708-0.636V1.763c0-0.216-0.18-0.384-0.444-0.384h-0.036l-0.78,0.06l-0.012-0.072
		l1.019-0.192c0.528-0.096,0.972-0.384,0.972-0.875V0.252h0.108v1.571c0,0.192-0.012,1.151-0.024,1.259h0.084
		c0.036-0.216,0.132-0.576,0.216-0.779c0.384-1.02,1.319-1.679,2.411-1.679c1.427,0,2.219,0.72,2.219,1.811v3.334
		c0,2.447,1.979,4.078,4.953,4.078c1.595,0,3.238-0.552,3.838-1.655l0.096,0.048c-0.612,1.151-2.315,1.763-4.138,1.763
		c-3.466,0-5.781-1.883-5.781-4.702V2.639c0-1.176-0.372-1.811-1.295-1.811c-1.343,0-2.375,1.175-2.375,2.926v4.845
		c0,0.576,0.084,0.636,0.719,0.636h0.456v0.108h-3.358L31.68,9.235z M40.04,4.246c0-2.171,1.583-3.622,3.97-3.622
		c2.363,0,3.946,1.451,3.946,3.622c0,2.183-1.583,3.634-3.946,3.634C41.623,7.879,40.04,6.428,40.04,4.246z M44.033,7.664
		c1.799,0,2.758-1.115,2.758-3.19c0-2.363-0.995-3.634-2.842-3.634c-1.799,0-2.758,1.115-2.758,3.19
		C41.191,6.393,42.174,7.664,44.033,7.664z"/>
	<path d="M50.639,0.72v0.108h-1.02v0.024c0.18,0.06,0.324,0.348,0.408,0.552l3.034,6.68c0.012,0.036,0.108,0.264,0.108,0.432h0.168
		c0-0.06,0.012-0.228,0.132-0.479l2.963-6.465c0.048-0.12,0.071-0.228,0.071-0.324c0-0.251-0.18-0.419-0.636-0.419h-1.127V0.72
		h2.879v0.108h-0.168c-0.468,0-0.528,0.216-0.756,0.743l-3.49,7.832l-0.708,0.048l-3.502-7.88c-0.24-0.54-0.3-0.743-0.779-0.743
		h-0.192V0.72H50.639z"/>
	<path d="M57.997,9.235h0.468c0.623,0,0.695-0.072,0.695-0.744V1.463c0-0.576-0.072-0.635-0.695-0.635h-0.468V0.72h3.022v0.108
		h-0.12c-0.636,0-0.708,0.06-0.708,0.635v2.699c0.468,0,0.731-0.024,0.852-0.168l2.087-2.387c0.156-0.192,0.228-0.336,0.228-0.456
		c0-0.228-0.275-0.324-0.684-0.324h-0.119V0.72h2.914v0.108H65.3c-0.576,0-1.379,0.192-1.931,0.827l-2.1,2.411l0.013,0.048
		c1.667,0.348,2.183,1.427,2.398,2.495c0.264,1.295,0.132,2.579,1.151,2.579c0.168,0,0.384-0.072,0.624-0.24l0.168-0.12l0.071,0.084
		l-0.168,0.12c-0.371,0.3-0.731,0.444-1.079,0.444c-1.415,0-1.547-1.403-1.823-2.747c-0.264-1.247-0.659-2.458-2.314-2.458h-0.168
		v4.222c0,0.672,0.084,0.744,0.72,0.744h0.456v0.108H57.96L57.997,9.235z"/>
	<path d="M70.353,2.411c0-1.031-0.539-1.571-1.559-1.571c-1.308,0-1.991,0.696-2.039,1.631l-0.036,0.744H66.48l0.144-2.831h0.132
		L66.719,1.02c-0.023,0.167-0.036,0.3-0.06,0.384l0.096,0.024c0.012-0.036,0.12-0.216,0.204-0.276
		c0.407-0.276,1.031-0.528,1.823-0.528c1.703,0,2.626,0.684,2.626,1.943v5.925c0,0.48,0.036,0.612,0.432,0.612
		c0.084,0,0.168-0.012,0.265-0.012l0.228-0.012l0.012,0.108c-0.647,0.06-1.091,0.156-1.463,0.264V9.355
		c0-0.54-0.24-1.439-0.252-1.859h-0.132c-0.396,1.439-1.26,1.943-2.219,1.943c-1.415,0-2.482-0.792-2.482-1.967
		c0-1.499,1.403-2.495,3.525-2.495h1.031V2.411z M69.394,5.193c-1.476,0-2.459,0.912-2.459,2.279c0,0.983,0.612,1.643,1.512,1.643
		c0.923,0,1.906-0.768,1.906-2.482V5.193H69.394z"/>
	<path d="M76.332,9.235h0.456c0.636,0,0.708-0.06,0.708-0.636V1.463c0-0.576-0.072-0.635-0.708-0.635h-0.456V0.72h3.322
		c1.991,0,3.311,1.055,3.311,2.638c0,1.571-1.319,2.627-3.311,2.627h-1.139v2.614c0,0.576,0.084,0.636,0.719,0.636h0.324v0.108
		h-3.227V9.235z M78.298,1.007c0.156,0.192,0.217,0.468,0.217,0.744v4.018h0.743c1.667,0,2.555-0.839,2.555-2.411
		c0-1.571-0.888-2.411-2.555-2.411h-0.96V1.007z"/>
	<path d="M87.885,2.411c0-1.031-0.54-1.571-1.56-1.571c-1.307,0-1.99,0.696-2.038,1.631l-0.036,0.744h-0.24l0.145-2.831h0.132
		L84.251,1.02c-0.024,0.167-0.036,0.3-0.061,0.384l0.097,0.024c0.012-0.036,0.119-0.216,0.203-0.276
		c0.408-0.276,1.032-0.528,1.823-0.528c1.703,0,2.627,0.684,2.627,1.943v5.925c0,0.48,0.036,0.612,0.432,0.612
		c0.084,0,0.168-0.012,0.264-0.012l0.228-0.012l0.013,0.108c-0.648,0.06-1.092,0.156-1.464,0.264V9.355
		c0-0.54-0.239-1.439-0.252-1.859h-0.132c-0.396,1.439-1.259,1.943-2.219,1.943c-1.415,0-2.482-0.792-2.482-1.967
		c0-1.499,1.403-2.495,3.526-2.495h1.031V2.411z M86.925,5.193c-1.475,0-2.458,0.912-2.458,2.279c0,0.983,0.611,1.643,1.511,1.643
		c0.924,0,1.907-0.768,1.907-2.482V5.193H86.925z"/>
	<path d="M90.335,9.247h0.456c0.636,0,0.707-0.06,0.707-0.635V1.475c0-0.576-0.071-0.636-0.707-0.636h-0.456V0.731h3.442
		c2.11,0,3.502,1.067,3.502,2.663c0,1.463-1.212,2.458-2.795,2.591l-0.264,0.012v0.072c0.624,0.06,1.176,0.408,1.463,0.828
		l0.66,0.948c0.348,0.492,0.791,1.235,1.307,1.235c0.12,0,0.252-0.048,0.384-0.144l0.288-0.228l0.072,0.084l-0.288,0.228
		c-0.432,0.324-0.779,0.456-1.104,0.456c-0.672,0-1.127-0.624-1.535-1.211l-0.923-1.295c-0.444-0.612-0.72-0.924-1.308-0.924h-0.156
		V5.841h0.6c1.607,0,2.471-0.864,2.471-2.459c0-1.595-0.863-2.446-2.471-2.446h-1.367v0.012c0.156,0.144,0.217,0.348,0.217,0.624
		v7.028c0,0.576,0.084,0.636,0.719,0.636h0.768v0.108h-3.67L90.335,9.247z"/>
	<path d="M98.519,9.235h0.468c0.624,0,0.696-0.072,0.696-0.744V1.463c0-0.576-0.072-0.635-0.696-0.635h-0.468V0.72h3.022v0.108
		h-0.119c-0.636,0-0.708,0.06-0.708,0.635v2.699c0.468,0,0.731-0.024,0.852-0.168l2.087-2.387c0.156-0.192,0.228-0.336,0.228-0.456
		c0-0.228-0.275-0.324-0.684-0.324h-0.12V0.72h2.915v0.108h-0.168c-0.576,0-1.38,0.192-1.932,0.827l-2.099,2.411l0.013,0.048
		c1.667,0.348,2.183,1.427,2.398,2.495c0.264,1.295,0.132,2.579,1.151,2.579c0.168,0,0.384-0.072,0.623-0.24l0.168-0.12l0.072,0.084
		l-0.168,0.12c-0.372,0.3-0.731,0.444-1.079,0.444c-1.415,0-1.548-1.403-1.823-2.747c-0.264-1.247-0.659-2.458-2.314-2.458h-0.168
		v4.222c0,0.672,0.084,0.744,0.72,0.744h0.455v0.108h-3.357L98.519,9.235z"/>
</g>
<g id="Layer_1">
</g>
</svg>
