<?xml version="1.0" encoding="utf-8"?>
<!-- Generator: Adobe Illustrator 16.0.0, SVG Export Plug-In . SVG Version: 6.00 Build 0)  -->
<!DOCTYPE svg PUBLIC "-//W3C//DTD SVG 1.1//EN" "http://www.w3.org/Graphics/SVG/1.1/DTD/svg11.dtd">
<svg version="1.1" id="Layer_1" xmlns="http://www.w3.org/2000/svg" xmlns:xlink="http://www.w3.org/1999/xlink" x="0px" y="0px"
	 width="47.265px" height="48.529px" viewBox="0 0 47.265 48.529" enable-background="new 0 0 47.265 48.529" xml:space="preserve">
<g id="frame_2_">
	<g id="frame_3_">
	</g>
</g>
<g>
	<g>
		<path fill="#FFFFFF" d="M24.748,30.452c-2.839,0-5.151-2.31-5.151-5.151c0-2.84,2.312-5.151,5.151-5.151
			c2.841,0,5.152,2.312,5.152,5.151C29.9,28.142,27.589,30.452,24.748,30.452z M24.748,21.233c-2.242,0-4.067,1.825-4.067,4.067
			c0,2.243,1.825,4.067,4.067,4.067c2.243,0,4.067-1.824,4.067-4.067C28.815,23.058,26.991,21.233,24.748,21.233z"/>
	</g>
	<g>
		<path fill="#FFFFFF" d="M36.562,33.483H12.701V17.757h6.861l1.626-2.711h7.12l1.624,2.711h6.63V33.483z M13.786,32.398h21.692
			V18.842h-6.161l-1.624-2.711h-5.89l-1.628,2.711h-6.39V32.398z"/>
	</g>
	<g>
		<circle fill="#FFFFFF" cx="32.689" cy="21.794" r="0.965"/>
	</g>
	<g>
		<polygon fill="#FFFFFF" points="18.124,18.301 17.04,18.301 17.04,17.757 14.87,17.757 14.87,18.301 13.786,18.301 13.786,16.673 
			18.124,16.673 		"/>
	</g>
	<g>
		<rect x="22.463" y="17.214" fill="#FFFFFF" width="4.881" height="1.086"/>
	</g>
</g>
</svg>
