<?xml version="1.0" encoding="iso-8859-1"?>
<!-- Generator: Adobe Illustrator 18.1.1, SVG Export Plug-In . SVG Version: 6.00 Build 0)  -->
<svg version="1.1" xmlns="http://www.w3.org/2000/svg" xmlns:xlink="http://www.w3.org/1999/xlink" x="0px" y="0px"
	 viewBox="0 0 23.861 18.437" style="enable-background:new 0 0 23.861 18.437;" xml:space="preserve">
<g id="Layer_1_1_">
	<g id="frame_2_">
		<g id="frame_3_">
		</g>
	</g>
	<g>
		<g>
			<path style="fill:#d7df23;" d="M12.047,15.406c-2.839,0-5.151-2.31-5.151-5.151c0-2.84,2.312-5.151,5.151-5.151
				c2.841,0,5.152,2.312,5.152,5.151C17.199,13.096,14.888,15.406,12.047,15.406z M12.047,6.187c-2.242,0-4.067,1.825-4.067,4.067
				c0,2.243,1.825,4.067,4.067,4.067c2.243,0,4.067-1.824,4.067-4.067C16.114,8.012,14.29,6.187,12.047,6.187z"/>
		</g>
		<g>
			<path style="fill:#d7df23;" d="M23.861,18.437H0V2.711h6.861L8.487,0h7.12l1.624,2.711h6.63V18.437z M1.085,17.352h21.692V3.796
				h-6.161l-1.624-2.711h-5.89L7.474,3.796h-6.39L1.085,17.352L1.085,17.352z"/>
		</g>
		<g>
			<circle style="fill:#d7df23;" cx="19.988" cy="6.748" r="0.965"/>
		</g>
		<g>
			<polygon style="fill:#d7df23;" points="5.423,3.255 4.339,3.255 4.339,2.711 2.169,2.711 2.169,3.255 1.085,3.255 1.085,1.627 
				5.423,1.627 			"/>
		</g>
		<g>
			<rect x="9.762" y="2.168" style="fill:#d7df23;" width="4.881" height="1.086"/>
		</g>
	</g>
</g>
<g id="Layer_1">
</g>
</svg>
