<?xml version="1.0" encoding="utf-8"?>
<!-- Generator: Adobe Illustrator 16.0.0, SVG Export Plug-In . SVG Version: 6.00 Build 0)  -->
<!DOCTYPE svg PUBLIC "-//W3C//DTD SVG 1.1//EN" "http://www.w3.org/Graphics/SVG/1.1/DTD/svg11.dtd">
<svg version="1.1" id="Layer_1" xmlns="http://www.w3.org/2000/svg" xmlns:xlink="http://www.w3.org/1999/xlink" x="0px" y="0px"
	 width="47.266px" height="48.529px" viewBox="0 0 47.266 48.529" enable-background="new 0 0 47.266 48.529" xml:space="preserve">
<g id="frame_2_">
	<g id="frame_3_">
	</g>
</g>
<g>
	<g>
		<path fill="#FFFFFF" d="M24.506,21.818c0,0.816-0.663,1.48-1.48,1.48l0,0c-0.817,0-1.481-0.664-1.481-1.48v-2.222
			c0-0.818,0.664-1.481,1.481-1.481l0,0c0.817,0,1.48,0.664,1.48,1.481V21.818z"/>
		<polygon fill="#FFFFFF" points="37.839,28.062 36.801,27.003 35.987,27.831 35.987,18.114 34.506,18.114 34.506,27.831 
			33.692,27.003 32.654,28.062 34.208,29.644 34.204,29.648 35.242,30.707 35.247,30.702 35.251,30.707 36.29,29.648 36.285,29.644 
					"/>
		<path fill="#FFFFFF" d="M23.024,14.04c3.268,0,5.926,2.658,5.926,5.926v8.89c0,3.268-2.658,5.927-5.926,5.927
			c-3.269,0-5.926-2.659-5.926-5.927v-8.89C17.099,16.698,19.757,14.04,23.024,14.04 M23.024,12.559
			c-4.091,0-7.407,3.315-7.407,7.406v8.89c0,4.091,3.316,7.407,7.407,7.407c4.092,0,7.408-3.316,7.408-7.407v-8.89
			C30.433,15.875,27.116,12.559,23.024,12.559L23.024,12.559z"/>
	</g>
</g>
</svg>
