<?xml version="1.0" encoding="utf-8"?>
<!-- Generator: Adobe Illustrator 16.0.0, SVG Export Plug-In . SVG Version: 6.00 Build 0)  -->
<!DOCTYPE svg PUBLIC "-//W3C//DTD SVG 1.1//EN" "http://www.w3.org/Graphics/SVG/1.1/DTD/svg11.dtd">
<svg version="1.1" id="Layer_1" xmlns="http://www.w3.org/2000/svg" xmlns:xlink="http://www.w3.org/1999/xlink" x="0px" y="0px"
	 width="140.441px" height="48.529px" viewBox="0 0 140.441 48.529" enable-background="new 0 0 140.441 48.529"
	 xml:space="preserve">
<g>
	<path fill="#FFFFFF" d="M24.579,28.673c-0.877,0-1.59,0.713-1.59,1.589c0,0.877,0.713,1.59,1.59,1.59c0.876,0,1.59-0.713,1.59-1.59
		C26.168,29.386,25.455,28.673,24.579,28.673z M24.579,30.557c-0.162,0-0.295-0.133-0.295-0.295s0.133-0.294,0.295-0.294
		s0.295,0.132,0.295,0.294S24.741,30.557,24.579,30.557z"/>
	<path fill="#FFFFFF" d="M37.766,28.673c-0.877,0-1.59,0.713-1.59,1.589c0,0.877,0.714,1.59,1.59,1.59c0.877,0,1.59-0.713,1.59-1.59
		C39.356,29.386,38.643,28.673,37.766,28.673z M37.766,30.557c-0.162,0-0.295-0.133-0.295-0.295s0.133-0.294,0.295-0.294
		s0.294,0.132,0.294,0.294S37.928,30.557,37.766,30.557z"/>
	<path fill="#FFFFFF" d="M43.417,20.509h-0.294v-6.178c0-1.441-1.172-2.614-2.613-2.614H21.834c-1.441,0-2.613,1.173-2.613,2.614
		v6.178h-0.295c-1.049,0-1.903,0.854-1.903,1.904v1.256c0,1.049,0.854,1.903,1.903,1.903h0.295v6.45
		c0,1.441,1.172,2.613,2.613,2.613h0.447v2.221c0,0.877,0.819,1.589,1.825,1.589h1.178c1.007,0,1.825-0.713,1.825-1.589v-2.221
		h8.125v2.221c0,0.877,0.818,1.589,1.824,1.589h1.178c1.006,0,1.825-0.713,1.825-1.589v-2.221h0.447
		c1.442,0,2.614-1.173,2.614-2.613v-6.45h0.293c1.051,0,1.904-0.854,1.904-1.903v-1.256C45.321,21.363,44.467,20.509,43.417,20.509z
		 M39.199,22.148c-0.231-0.272-0.642-0.303-0.913-0.07l-4.395,3.768l-0.001,0.001h-8.687l3.25-2.785
		c0.272-0.233,0.304-0.642,0.07-0.913c-0.232-0.272-0.641-0.303-0.912-0.07l-4.396,3.768v0.001h-2.699v-8.282h21.312v8.282h-5.949
		l3.249-2.785C39.401,22.828,39.432,22.42,39.199,22.148z M21.834,13.012H40.51c0.727,0,1.318,0.592,1.318,1.319v1.938H20.516
		v-1.938C20.516,13.604,21.107,13.012,21.834,13.012z M18.926,24.276c-0.335,0-0.608-0.272-0.608-0.607v-1.256
		c0-0.336,0.273-0.609,0.608-0.609h0.295v2.474L18.926,24.276L18.926,24.276z M25.815,36.856c0,0.117-0.212,0.294-0.53,0.294h-1.178
		c-0.318,0-0.53-0.177-0.53-0.294v-2.221h2.238V36.856z M38.767,36.856c0,0.117-0.211,0.294-0.529,0.294h-1.179
		c-0.318,0-0.529-0.177-0.529-0.294v-2.221h2.237V36.856z M40.51,33.341H21.834c-0.728,0-1.318-0.591-1.318-1.318v-4.881h21.312
		v4.881C41.829,32.75,41.237,33.341,40.51,33.341z M44.026,23.669c0,0.335-0.272,0.607-0.607,0.607h-0.294v-2.474h0.294
		c0.335,0,0.607,0.273,0.607,0.609V23.669z"/>
	<path fill="#FFFFFF" d="M23.206,15.366h15.699c0.357,0,0.646-0.289,0.646-0.646c0-0.358-0.289-0.648-0.646-0.648H23.206
		c-0.358,0-0.648,0.29-0.648,0.648C22.557,15.077,22.847,15.366,23.206,15.366z"/>
</g>
<g>
	<path fill="#FFFFFF" d="M121.809,31.511H101.06c-2.125,0-3.854-1.728-3.854-3.854v-3.363c0-0.963,0.58-1.81,1.479-2.157
		l1.571-0.608l2.267-4.852c0.504-1.07,1.592-1.766,2.774-1.766h12.263c1.189,0,2.281,0.699,2.78,1.778l2.218,4.807l1.698,0.724
		c0.854,0.365,1.405,1.201,1.405,2.128v3.31C125.663,29.783,123.934,31.511,121.809,31.511z M105.298,16.097
		c-0.725,0-1.392,0.424-1.7,1.083l-2.368,5.065c-0.064,0.14-0.179,0.247-0.322,0.303l-1.793,0.693
		c-0.439,0.169-0.723,0.583-0.723,1.053v3.363c0,1.47,1.196,2.668,2.668,2.668h20.749c1.472,0,2.668-1.198,2.668-2.668v-3.31
		c0-0.453-0.27-0.861-0.686-1.037l-1.907-0.815c-0.135-0.059-0.243-0.167-0.306-0.297l-2.313-5.013
		c-0.307-0.665-0.974-1.091-1.704-1.091L105.298,16.097z"/>
	<path fill="#FFFFFF" d="M111.459,24.496c-6.004,0-11.34-1.195-13.595-3.045c-0.253-0.208-0.289-0.581-0.082-0.833
		c0.208-0.254,0.58-0.291,0.835-0.082c2.023,1.657,7.185,2.776,12.842,2.776c5.586,0,10.724-1.098,12.789-2.732
		c0.255-0.207,0.627-0.164,0.83,0.095c0.205,0.258,0.161,0.629-0.096,0.833C122.693,23.325,117.385,24.496,111.459,24.496z"/>
	<path fill="#FFFFFF" d="M101.875,28.62c-0.98,0-1.778-0.797-1.778-1.778c0-0.98,0.798-1.778,1.778-1.778s1.779,0.798,1.779,1.778
		C103.654,27.824,102.856,28.62,101.875,28.62z M101.875,26.249c-0.327,0-0.592,0.269-0.592,0.593c0,0.325,0.265,0.593,0.592,0.593
		s0.594-0.268,0.594-0.593S102.202,26.249,101.875,26.249z"/>
	<path fill="#FFFFFF" d="M120.846,28.62c-0.982,0-1.778-0.797-1.778-1.778c0-0.98,0.796-1.778,1.778-1.778
		c0.979,0,1.778,0.798,1.778,1.778C122.625,27.824,121.829,28.62,120.846,28.62z M120.846,26.249c-0.327,0-0.593,0.269-0.593,0.593
		c0,0.325,0.266,0.593,0.593,0.593c0.326,0,0.593-0.268,0.593-0.593S121.172,26.249,120.846,26.249z"/>
	<path fill="#FFFFFF" d="M102.542,35.252c-1.634,0-2.964-1.328-2.964-2.964v-1.963h1.186v1.963c0,0.979,0.799,1.778,1.778,1.778
		c0.981,0,1.778-0.799,1.778-1.778v-1.963h1.187v1.963C105.506,33.924,104.175,35.252,102.542,35.252z"/>
	<path fill="#FFFFFF" d="M120.328,35.252c-1.634,0-2.965-1.328-2.965-2.964v-1.963h1.187v1.963c0,0.979,0.797,1.778,1.778,1.778
		c0.98,0,1.778-0.799,1.778-1.778v-1.963h1.186v1.963C123.292,33.924,121.961,35.252,120.328,35.252z"/>
	<path fill="#FFFFFF" d="M116.177,27.954h-9.484c-0.328,0-0.594-0.268-0.594-0.593c0-0.326,0.266-0.594,0.594-0.594h9.484
		c0.326,0,0.593,0.268,0.593,0.594C116.77,27.687,116.503,27.954,116.177,27.954z"/>
	<path fill="#FFFFFF" d="M104.32,19.112c-0.163,0-0.325-0.068-0.444-0.2c-0.217-0.245-0.194-0.62,0.051-0.836l1.285-1.138
		c0.244-0.219,0.618-0.195,0.836,0.051c0.218,0.244,0.195,0.619-0.051,0.838l-1.283,1.137
		C104.601,19.063,104.46,19.112,104.32,19.112z"/>
	<path fill="#FFFFFF" d="M104.32,21.384c-0.156,0-0.313-0.062-0.43-0.186c-0.225-0.237-0.215-0.613,0.024-0.838l3.606-3.409
		c0.237-0.224,0.613-0.214,0.838,0.025c0.226,0.238,0.215,0.616-0.024,0.839l-3.607,3.408
		C104.614,21.33,104.467,21.384,104.32,21.384z"/>
</g>
<g>
	<path id="tram_2_" fill="#FFFFFF" d="M77.346,13.597h-5.76v-1.622h2.709c0.372,0,0.677-0.305,0.677-0.677
		c0-0.376-0.305-0.678-0.677-0.678h-6.772c-0.372,0-0.677,0.302-0.677,0.678c0,0.372,0.305,0.677,0.677,0.677h2.71v1.622h-5.76
		c-1.117,0-2.028,0.979-2.028,2.181v18.662c0,1.203,0.911,2.182,2.028,2.182h0.883l-1.124,1.898
		c-0.189,0.322-0.085,0.738,0.237,0.928c0.108,0.064,0.227,0.096,0.346,0.096c0.23,0,0.457-0.119,0.582-0.332l1.53-2.584
		c0-0.003,0.003-0.003,0.003-0.006h7.957c0,0.003,0.004,0.003,0.004,0.006l1.529,2.584c0.125,0.213,0.354,0.332,0.583,0.332
		c0.118,0,0.237-0.031,0.345-0.096c0.322-0.189,0.428-0.605,0.238-0.928l-1.124-1.898h0.884c1.12,0,2.027-0.979,2.027-2.182V15.777
		C79.374,14.575,78.466,13.597,77.346,13.597z M78.019,34.439c0,0.454-0.301,0.827-0.673,0.827H64.473
		c-0.373,0-0.674-0.373-0.674-0.827V15.777c0-0.458,0.301-0.827,0.674-0.827h12.873c0.372,0,0.673,0.369,0.673,0.827V34.439z
		 M74.702,27.309h-7.586c-1.121,0-2.031-0.912-2.031-2.032v-4.231c0-1.12,0.91-2.032,2.031-2.032h7.586
		c1.121,0,2.031,0.912,2.031,2.032v4.231C76.733,26.396,75.823,27.309,74.702,27.309z M67.116,20.367
		c-0.373,0-0.678,0.304-0.678,0.678v4.231c0,0.374,0.305,0.678,0.678,0.678h7.586c0.374,0,0.678-0.304,0.678-0.678v-4.231
		c0-0.374-0.304-0.678-0.678-0.678H67.116z M66.438,33.262c-0.746,0-1.354-0.607-1.354-1.354c0-0.746,0.607-1.354,1.354-1.354
		c0.747,0,1.355,0.608,1.355,1.354C67.793,32.654,67.185,33.262,66.438,33.262z M75.379,33.262c-0.746,0-1.354-0.607-1.354-1.354
		c0-0.746,0.608-1.354,1.354-1.354c0.747,0,1.354,0.608,1.354,1.354C76.733,32.654,76.126,33.262,75.379,33.262z M72.178,17.658
		h-2.539c-0.374,0-0.677-0.304-0.677-0.677c0-0.374,0.303-0.678,0.677-0.678h2.539c0.375,0,0.678,0.304,0.678,0.678
		C72.856,17.354,72.553,17.658,72.178,17.658z"/>
</g>
</svg>
