<?xml version="1.0" encoding="iso-8859-1"?>
<!-- Generator: Adobe Illustrator 18.1.1, SVG Export Plug-In . SVG Version: 6.00 Build 0)  -->
<svg version="1.1" xmlns="http://www.w3.org/2000/svg" xmlns:xlink="http://www.w3.org/1999/xlink" x="0px" y="0px"
	 viewBox="0 0 108.638 28.924" style="enable-background:new 0 0 108.638 28.924;" xml:space="preserve">
<g id="Layer_1_1_">
	<g>
		<path style="fill:#FFFFFF;" d="M7.556,18.053c-0.877,0-1.59,0.713-1.59,1.589c0,0.877,0.713,1.59,1.59,1.59
			c0.876,0,1.59-0.713,1.59-1.59C9.145,18.766,8.432,18.053,7.556,18.053z M7.556,19.937c-0.162,0-0.295-0.133-0.295-0.295
			s0.133-0.294,0.295-0.294s0.295,0.132,0.295,0.294S7.718,19.937,7.556,19.937z"/>
		<path style="fill:#FFFFFF;" d="M20.743,18.053c-0.877,0-1.59,0.713-1.59,1.589c0,0.877,0.714,1.59,1.59,1.59
			c0.877,0,1.59-0.713,1.59-1.59C22.333,18.766,21.62,18.053,20.743,18.053z M20.743,19.937c-0.162,0-0.295-0.133-0.295-0.295
			s0.133-0.294,0.295-0.294s0.294,0.132,0.294,0.294S20.905,19.937,20.743,19.937z"/>
		<path style="fill:#FFFFFF;" d="M26.394,9.889H26.1V3.711c0-1.441-1.172-2.614-2.613-2.614H4.811c-1.441,0-2.613,1.173-2.613,2.614
			v6.178H1.903C0.854,9.889,0,10.743,0,11.793v1.256c0,1.049,0.854,1.903,1.903,1.903h0.295v6.45c0,1.441,1.172,2.613,2.613,2.613
			h0.447v2.221c0,0.877,0.819,1.589,1.825,1.589h1.178c1.007,0,1.825-0.713,1.825-1.589v-2.221h8.125v2.221
			c0,0.877,0.818,1.589,1.824,1.589h1.178c1.006,0,1.825-0.713,1.825-1.589v-2.221h0.447c1.442,0,2.614-1.173,2.614-2.613v-6.45
			h0.293c1.051,0,1.904-0.854,1.904-1.903v-1.256C28.298,10.743,27.444,9.889,26.394,9.889z M22.176,11.528
			c-0.231-0.272-0.642-0.303-0.913-0.07l-4.395,3.768l-0.001,0.001H8.18l3.25-2.785c0.272-0.233,0.304-0.642,0.07-0.913
			c-0.232-0.272-0.641-0.303-0.912-0.07l-4.396,3.768v0.001H3.493V6.946h21.312v8.282h-5.949l3.249-2.785
			C22.378,12.208,22.409,11.8,22.176,11.528z M4.811,2.392h18.676c0.727,0,1.318,0.592,1.318,1.319v1.938H3.493V3.711
			C3.493,2.984,4.084,2.392,4.811,2.392z M1.903,13.656c-0.335,0-0.608-0.272-0.608-0.607v-1.256c0-0.336,0.273-0.609,0.608-0.609
			h0.295v2.474L1.903,13.656L1.903,13.656z M8.792,26.236c0,0.117-0.212,0.294-0.53,0.294H7.084c-0.318,0-0.53-0.177-0.53-0.294
			v-2.221h2.238C8.792,24.015,8.792,26.236,8.792,26.236z M21.744,26.236c0,0.117-0.211,0.294-0.529,0.294h-1.179
			c-0.318,0-0.529-0.177-0.529-0.294v-2.221h2.237V26.236z M23.487,22.721H4.811c-0.728,0-1.318-0.591-1.318-1.318v-4.881h21.312
			v4.881C24.806,22.13,24.214,22.721,23.487,22.721z M27.003,13.049c0,0.335-0.272,0.607-0.607,0.607h-0.294v-2.474h0.294
			c0.335,0,0.607,0.273,0.607,0.609V13.049z"/>
		<path style="fill:#FFFFFF;" d="M6.183,4.746h15.699c0.357,0,0.646-0.289,0.646-0.646c0-0.358-0.289-0.648-0.646-0.648H6.183
			c-0.358,0-0.648,0.29-0.648,0.648C5.534,4.457,5.824,4.746,6.183,4.746z"/>
	</g>
	<g>
		<path style="fill:#FFFFFF;" d="M104.786,20.891H84.037c-2.125,0-3.854-1.728-3.854-3.854v-3.363c0-0.963,0.58-1.81,1.479-2.157
			l1.571-0.608L85.5,6.057c0.504-1.07,1.592-1.766,2.774-1.766h12.263c1.189,0,2.281,0.699,2.78,1.778l2.218,4.807l1.698,0.724
			c0.854,0.365,1.405,1.201,1.405,2.128v3.31C108.64,19.163,106.911,20.891,104.786,20.891z M88.275,5.477
			c-0.725,0-1.392,0.424-1.7,1.083l-2.368,5.065c-0.064,0.14-0.179,0.247-0.322,0.303l-1.793,0.693
			c-0.439,0.169-0.723,0.583-0.723,1.053v3.363c0,1.47,1.196,2.668,2.668,2.668h20.749c1.472,0,2.668-1.198,2.668-2.668v-3.31
			c0-0.453-0.27-0.861-0.686-1.037l-1.907-0.815c-0.135-0.059-0.243-0.167-0.306-0.297l-2.313-5.013
			c-0.307-0.665-0.974-1.091-1.704-1.091L88.275,5.477z"/>
		<path style="fill:#FFFFFF;" d="M94.436,13.876c-6.004,0-11.34-1.195-13.595-3.045c-0.253-0.208-0.289-0.581-0.082-0.833
			c0.208-0.254,0.58-0.291,0.835-0.082c2.023,1.657,7.185,2.776,12.842,2.776c5.586,0,10.724-1.098,12.789-2.732
			c0.255-0.207,0.627-0.164,0.83,0.095c0.205,0.258,0.161,0.629-0.096,0.833C105.67,12.705,100.362,13.876,94.436,13.876z"/>
		<path style="fill:#FFFFFF;" d="M84.852,18c-0.98,0-1.778-0.797-1.778-1.778c0-0.98,0.798-1.778,1.778-1.778
			s1.779,0.798,1.779,1.778C86.631,17.204,85.833,18,84.852,18z M84.852,15.629c-0.327,0-0.592,0.269-0.592,0.593
			c0,0.325,0.265,0.593,0.592,0.593s0.594-0.268,0.594-0.593S85.179,15.629,84.852,15.629z"/>
		<path style="fill:#FFFFFF;" d="M103.823,18c-0.982,0-1.778-0.797-1.778-1.778c0-0.98,0.796-1.778,1.778-1.778
			c0.979,0,1.778,0.798,1.778,1.778C105.602,17.204,104.806,18,103.823,18z M103.823,15.629c-0.327,0-0.593,0.269-0.593,0.593
			c0,0.325,0.266,0.593,0.593,0.593c0.326,0,0.593-0.268,0.593-0.593S104.149,15.629,103.823,15.629z"/>
		<path style="fill:#FFFFFF;" d="M85.519,24.632c-1.634,0-2.964-1.328-2.964-2.964v-1.963h1.186v1.963
			c0,0.979,0.799,1.778,1.778,1.778c0.981,0,1.778-0.799,1.778-1.778v-1.963h1.187v1.963C88.483,23.304,87.152,24.632,85.519,24.632
			z"/>
		<path style="fill:#FFFFFF;" d="M103.305,24.632c-1.634,0-2.965-1.328-2.965-2.964v-1.963h1.187v1.963
			c0,0.979,0.797,1.778,1.778,1.778c0.98,0,1.778-0.799,1.778-1.778v-1.963h1.186v1.963
			C106.269,23.304,104.938,24.632,103.305,24.632z"/>
		<path style="fill:#FFFFFF;" d="M99.154,17.334H89.67c-0.328,0-0.594-0.268-0.594-0.593c0-0.326,0.266-0.594,0.594-0.594h9.484
			c0.326,0,0.593,0.268,0.593,0.594C99.747,17.067,99.48,17.334,99.154,17.334z"/>
		<path style="fill:#FFFFFF;" d="M87.297,8.492c-0.163,0-0.325-0.068-0.444-0.2c-0.217-0.245-0.194-0.62,0.051-0.836l1.285-1.138
			c0.244-0.219,0.618-0.195,0.836,0.051c0.218,0.244,0.195,0.619-0.051,0.838l-1.283,1.137C87.578,8.443,87.437,8.492,87.297,8.492z
			"/>
		<path style="fill:#FFFFFF;" d="M87.297,10.764c-0.156,0-0.313-0.062-0.43-0.186c-0.225-0.237-0.215-0.613,0.024-0.838l3.606-3.409
			c0.237-0.224,0.613-0.214,0.838,0.025c0.226,0.238,0.215,0.616-0.024,0.839l-3.607,3.408
			C87.591,10.71,87.444,10.764,87.297,10.764z"/>
	</g>
	<g>
		<path id="tram_2_" style="fill:#FFFFFF;" d="M60.323,2.977h-5.76V1.355h2.709c0.372,0,0.677-0.305,0.677-0.677
			C57.949,0.302,57.644,0,57.272,0H50.5c-0.372,0-0.677,0.302-0.677,0.678c0,0.372,0.305,0.677,0.677,0.677h2.71v1.622h-5.76
			c-1.117,0-2.028,0.979-2.028,2.181V23.82c0,1.203,0.911,2.182,2.028,2.182h0.883L47.209,27.9
			c-0.189,0.322-0.085,0.738,0.237,0.928c0.108,0.064,0.227,0.096,0.346,0.096c0.23,0,0.457-0.119,0.582-0.332l1.53-2.584
			c0-0.003,0.003-0.003,0.003-0.006h7.957c0,0.003,0.004,0.003,0.004,0.006l1.529,2.584c0.125,0.213,0.354,0.332,0.583,0.332
			c0.118,0,0.237-0.031,0.345-0.096c0.322-0.189,0.428-0.605,0.238-0.928l-1.124-1.898h0.884c1.12,0,2.027-0.979,2.027-2.182V5.157
			C62.351,3.955,61.443,2.977,60.323,2.977z M60.996,23.819c0,0.454-0.301,0.827-0.673,0.827H47.45
			c-0.373,0-0.674-0.373-0.674-0.827V5.157c0-0.458,0.301-0.827,0.674-0.827h12.873c0.372,0,0.673,0.369,0.673,0.827V23.819z
			 M57.679,16.689h-7.586c-1.121,0-2.031-0.912-2.031-2.032v-4.231c0-1.12,0.91-2.032,2.031-2.032h7.586
			c1.121,0,2.031,0.912,2.031,2.032v4.231C59.71,15.776,58.8,16.689,57.679,16.689z M50.093,9.747c-0.373,0-0.678,0.304-0.678,0.678
			v4.231c0,0.374,0.305,0.678,0.678,0.678h7.586c0.374,0,0.678-0.304,0.678-0.678v-4.231c0-0.374-0.304-0.678-0.678-0.678
			C57.679,9.747,50.093,9.747,50.093,9.747z M49.415,22.642c-0.746,0-1.354-0.607-1.354-1.354c0-0.746,0.607-1.354,1.354-1.354
			c0.747,0,1.355,0.608,1.355,1.354C50.77,22.034,50.162,22.642,49.415,22.642z M58.356,22.642c-0.746,0-1.354-0.607-1.354-1.354
			c0-0.746,0.608-1.354,1.354-1.354c0.747,0,1.354,0.608,1.354,1.354C59.71,22.034,59.103,22.642,58.356,22.642z M55.155,7.038
			h-2.539c-0.374,0-0.677-0.304-0.677-0.677c0-0.374,0.303-0.678,0.677-0.678h2.539c0.375,0,0.678,0.304,0.678,0.678
			C55.833,6.734,55.53,7.038,55.155,7.038z"/>
	</g>
</g>
<g id="Layer_1">
</g>
</svg>
