<?xml version="1.0" encoding="iso-8859-1"?>
<!-- Generator: Adobe Illustrator 18.1.1, SVG Export Plug-In . SVG Version: 6.00 Build 0)  -->
<svg version="1.1" xmlns="http://www.w3.org/2000/svg" xmlns:xlink="http://www.w3.org/1999/xlink" x="0px" y="0px"
	 viewBox="0 0 145.04 143.182" style="enable-background:new 0 0 145.04 143.182;" xml:space="preserve">
<defs>
	<pattern xmlns="http://www.w3.org/2000/svg" id="linesPattern" patternUnits="userSpaceOnUse" width="4" height="4">
    <rect width="4" height="4" fill="#bbdb4a" style="opacity:0.4;height:auto;overflow-x:visible;overflow-y:visible;width:auto;perspective-origin:0px 0px;-webkit-perspective-origin:0px 0px;transform-origin:0px 0px;-webkit-transform-origin:0px 0px;fill:#bbdb4a;"/>
    <path d="M 0,4 l 4,-4 M -1,1 l 2,-2 M 3,5 l 2,-2" stroke-width="1" shape-rendering="auto" stroke="#ffffff" stroke-linecap="square" style="opacity:0.7;height:auto;overflow-x:visible;overflow-y:visible;width:auto;perspective-origin:0px 0px;-webkit-perspective-origin:0px 0px;transform-origin:0px 0px;-webkit-transform-origin:0px 0px;stroke:#ffffff;stroke-linecap:square;stroke-width:1px;"/>
  </pattern>
</defs>
<g>
	<path style="fill-rule:evenodd;clip-rule:evenodd;fill:url(#linesPattern);stroke:#ffffff;stroke-width:4;stroke-miterlimit:10;" d="M1,21.4
		V11.32L29.08,4.6l1.68,7.68l3.84-1.92l11.28,0.48l5.04-1.92h19.2l0.96-5.04L80.92,1h38.64v7.92h16.32l2.88,86.88l5.28,0.72v21.6
		l-6.72,7.44h-17.76l-15.84,15.36L98.44,26.68L74.68,26.2l-0.24-6.96l-48.24-1.2l-7.68,3.12L1,21.4z"/>
</g>
</svg>
