<?xml version="1.0" encoding="iso-8859-1"?>
<!-- Generator: Adobe Illustrator 18.1.1, SVG Export Plug-In . SVG Version: 6.00 Build 0)  -->
<svg version="1.1" xmlns="http://www.w3.org/2000/svg" xmlns:xlink="http://www.w3.org/1999/xlink" x="0px" y="0px"
	 viewBox="0 0 95.506 89.52" style="enable-background:new 0 0 95.506 89.52;" xml:space="preserve">
<defs>
	<pattern xmlns="http://www.w3.org/2000/svg" id="linesPattern" patternUnits="userSpaceOnUse" width="4" height="4">
    <rect width="4" height="4" fill="#bbdb4a" style="opacity:0.4;height:auto;overflow-x:visible;overflow-y:visible;width:auto;perspective-origin:0px 0px;-webkit-perspective-origin:0px 0px;transform-origin:0px 0px;-webkit-transform-origin:0px 0px;fill:#bbdb4a;"/>
    <path d="M 0,4 l 4,-4 M -1,1 l 2,-2 M 3,5 l 2,-2" stroke-width="1" shape-rendering="auto" stroke="#ffffff" stroke-linecap="square" style="opacity:0.7;height:auto;overflow-x:visible;overflow-y:visible;width:auto;perspective-origin:0px 0px;-webkit-perspective-origin:0px 0px;transform-origin:0px 0px;-webkit-transform-origin:0px 0px;stroke:#ffffff;stroke-linecap:square;stroke-width:1px;"/>
  </pattern>
</defs>
<g>
	<path style="fill-rule:evenodd;clip-rule:evenodd;fill:url(#linesPattern);stroke:#ffffff;stroke-width:3;stroke-miterlimit:10;" d="M3.244,52.64
		l16.8,11.04v2.16l-1.2,1.68l10.8,7.44l7.44-2.88l23.28,15.12l7.2-3.84l0.48-9.84l6.72-3.84l0.24-2.64l7.44-3.84l0.24-2.64
		l10.32-5.04l0.48-21.84l-3.84-2.88v-3.36l-44.4-22.8l-4.32,1.68l-6.96-4.08L2.044,16.16L3.244,52.64z"/>
</g>
</svg>
