<?xml version="1.0" standalone="no"?>
<!DOCTYPE svg PUBLIC "-//W3C//DTD SVG 1.1//EN" "http://www.w3.org/Graphics/SVG/1.1/DTD/svg11.dtd" >
<svg xmlns="http://www.w3.org/2000/svg" xmlns:xlink="http://www.w3.org/1999/xlink" version="1.1">
<metadata></metadata>
<defs>
<font id="lighthausregular" horiz-adv-x="1806" >
<font-face units-per-em="2048" ascent="1536" descent="-512" />
<missing-glyph horiz-adv-x="600" />
<glyph horiz-adv-x="0" />
<glyph unicode="&#xd;" horiz-adv-x="663" />
<glyph unicode=" "  horiz-adv-x="600" />
<glyph unicode="&#x09;" horiz-adv-x="600" />
<glyph unicode="&#xa0;" horiz-adv-x="600" />
<glyph unicode="!" horiz-adv-x="518" d="M160 72q0 41 27 66.5t73 25.5q44 0 72 -25t28 -67q0 -40 -27.5 -65t-72.5 -25t-72.5 24t-27.5 66zM180 1499q0 19 80 19t80 -19q0 -199 -29.5 -540t-29.5 -541h-39q0 200 -31 541t-31 540z" />
<glyph unicode="&#x22;" horiz-adv-x="458" d="M78 1266l24 293q44 -2 61 -10.5t17 -35.5q0 -38 -14 -118l-16 -133zM260 1266l21 293q45 -2 62 -10t17 -36q0 -38 -14 -118l-16 -133z" />
<glyph unicode="#" horiz-adv-x="1038" d="M61 457v39h240l37 305h-240v41h242l39 329l43 -4l-39 -325h297l39 329l43 -4l-39 -325h258v-41h-262l-35 -305h256v-39h-260l-39 -344l-41 4l37 340h-297l-39 -344l-41 4l37 340h-236zM344 496h297l37 305h-299z" />
<glyph unicode="$" horiz-adv-x="1095" d="M61 582l41 2l4 -84q9 -178 127 -288t283 -110h2v605q-170 64 -235 102q-155 89 -170 231q-2 17 -2 35q0 142 111 232.5t296 99.5v137h39v-137q163 0 297 -90q10 -6 37 -47l14 4q-5 16 -8 65l-6 109h22l25 -483l-41 -2l-4 86q-4 63 -26 119t-62 102t-104 73.5t-144 28.5 v-518q172 -67 197 -78q171 -77 229 -181q37 -66 37 -151q0 -175 -121 -271.5t-342 -104.5v-140h-41v138q-100 0 -183.5 26t-172.5 82q-12 8 -32 31.5t-24 36.5l-10 -2q4 -9 10 -88l7 -129h-21zM266 1122q0 -91 65 -148.5t185 -105.5v502q-121 -8 -185.5 -71.5t-64.5 -176.5z M555 106q138 9 216.5 88.5t78.5 217.5q0 45 -16.5 83t-41 65t-66 53t-79 43t-92.5 38v-588z" />
<glyph unicode="%" horiz-adv-x="1458" d="M98 1098q0 127 87 205.5t227 78.5q141 0 226 -78t85 -206t-85 -205.5t-226 -77.5q-140 0 -227 78t-87 205zM186 154l1071 1067l29 -25l-1069 -1067zM229 1110q0 -127 47 -193.5t136 -66.5q182 0 182 235q0 127 -47.5 194t-136.5 67q-88 0 -134.5 -60.5t-46.5 -175.5z M737 266q0 128 85.5 205.5t226.5 77.5q140 0 225.5 -78t85.5 -205t-85.5 -205.5t-225.5 -78.5q-141 0 -226.5 78t-85.5 206zM864 279q0 -127 48 -194t139 -67q88 0 134 60t46 174q0 128 -46.5 194t-135.5 66q-91 0 -138 -59.5t-47 -173.5z" />
<glyph unicode="&#x26;" horiz-adv-x="1361" d="M68 387q0 162 104.5 278t271.5 136v2q-89 15 -146.5 94.5t-57.5 175.5q0 126 100 202.5t264 76.5q102 0 174 -27q50 -18 76 -59l4 2q-2 8 -2 35v43h21v-275h-21v33q-10 109 -81 160t-171 51q-114 0 -182 -65t-68 -171q0 -104 65.5 -186t168.5 -82h37v-37h-47 q-155 0 -241.5 -102t-86.5 -287q0 -158 111 -254t294 -96q193 0 310.5 87t117.5 230q0 103 -71 180.5t-185 77.5q-84 -7 -130 -40t-46 -107v-10h-41l-2 24q0 61 20 106t49.5 70.5t78 42.5t89.5 23.5t101 11.5l39 3l52.5 4.5t49 5t48.5 7t42 10.5t38.5 15.5t30 20.5t24.5 27 t14 35t6 44v25h33l4 -56v-34q0 -58 -17 -99.5t-43 -65t-69.5 -36.5t-85 -17t-100.5 -4h-47q72 -38 114.5 -111t42.5 -155q0 -163 -142.5 -262.5t-375.5 -99.5q-243 0 -389.5 109.5t-146.5 289.5z" />
<glyph unicode="'" horiz-adv-x="278" d="M78 1266l24 293q44 -2 61 -10.5t17 -35.5q0 -38 -14 -118l-16 -133z" />
<glyph unicode="(" horiz-adv-x="581" d="M78 571q0 301 114 580t330 475l27 -24q-148 -136 -228.5 -420.5t-80.5 -616.5q0 -333 81 -618t230 -420l-29 -27q-211 193 -327.5 477t-116.5 594zM549 1602l2 2v-5z" />
<glyph unicode=")" horiz-adv-x="581" d="M31 -473q147 134 229 419t82 617t-82 617t-229 419l30 27q216 -196 328.5 -474t112.5 -581q0 -310 -115.5 -595t-325.5 -476z" />
<glyph unicode="*" horiz-adv-x="600" d="M74 1212l4 7l188 81h4v7l-4 -2l-188 84q-4 2 -4 6l24 41h11q10 -4 87.5 -54t84.5 -53l4 -4l4 2l-4 4q0 9 -7.5 95.5t-7.5 95.5q2 4 4 6h52l4 -6q0 -9 -7.5 -95.5t-7.5 -95.5l-4 -4l4 -2l2 4q9 4 88.5 53.5t88.5 53.5h6l24 -41l-2 -6l-188 -84l-4 2v-7h4l188 -81 q2 -3 2 -7l-24 -41h-6q-9 4 -88.5 53.5t-88.5 53.5l-2 4l-4 -2l4 -4q0 -9 7.5 -95.5t7.5 -95.5q0 -4 -4 -6h-52l-4 6q0 9 7.5 95.5t7.5 95.5l4 4l-4 2l-4 -4q-7 -3 -84.5 -53t-87.5 -54h-11z" />
<glyph unicode="+" horiz-adv-x="976" d="M61 618l2 56h402v370l59 -2v-368h396l-5 -56h-391v-358l-59 4v354h-404z" />
<glyph unicode="," horiz-adv-x="440" d="M119 72q0 44 26.5 68t75.5 24q44 0 71 -25.5t27 -66.5q0 -116 -50.5 -186t-133.5 -70v18q44 0 82 34.5t47 78.5q5 39 8 45l-6 4q-11 -14 -45 -14q-102 0 -102 90z" />
<glyph unicode="-" horiz-adv-x="638" d="M41 563l8 55h553l-12 -55h-549z" />
<glyph unicode="." horiz-adv-x="440" d="M119 72q0 40 27.5 66t74.5 26q43 0 70.5 -25t27.5 -67q0 -41 -26 -65.5t-72 -24.5q-45 0 -73.5 24t-28.5 66z" />
<glyph unicode="/" horiz-adv-x="1099" d="M41 -352l967 1855l51 -24l-965 -1856z" />
<glyph unicode="0" horiz-adv-x="1222" d="M68 737q0 338 149 545t393 207q162 0 285.5 -93.5t190.5 -264t67 -394.5t-67 -395t-190.5 -264.5t-285.5 -93.5q-161 0 -284.5 93.5t-190.5 264.5t-67 395zM238 809q0 -385 96.5 -587t281.5 -202q180 0 274.5 165t94.5 479q0 384 -97.5 586t-283.5 202h-2 q-178 0 -271 -164.5t-93 -478.5z" />
<glyph unicode="1" horiz-adv-x="714" d="M23 -4v18h143q82 0 102.5 20.5t20.5 106.5v959q0 76 6 119l-8 4q-2 -2 -8.5 -10.5t-12 -15t-16 -17.5t-21.5 -21l-151 -155l-15 12l89 100q268 316 268 373h29v-1344q0 -87 18.5 -107t99.5 -20h125v-18z" />
<glyph unicode="2" horiz-adv-x="1042" d="M78 0v123q21 2 82.5 42t109.5 97q114 138 195.5 246t155.5 225t111.5 220t37.5 190q0 151 -72 230t-209 79q-70 0 -126 -23t-92.5 -63t-59 -87t-31.5 -101v-70h-39v360h21v-88q63 51 151 80t176 29q199 0 320 -102t121 -269q0 -102 -55 -218.5t-157.5 -238.5t-210.5 -228 t-253 -232q-72 -64 -94 -74l6 -10q80 10 131 10h332q71 0 115.5 3.5t89 15t69 34t41.5 60t21 92.5l4 59l24 -2l-24 -389h-891z" />
<glyph unicode="3" horiz-adv-x="1058" d="M78 133v256h41v-63q5 -55 29.5 -108t66 -98t105 -72.5t139.5 -27.5q171 0 261.5 97.5t90.5 281.5q0 188 -92 308t-244 120h-205v37h172q134 0 215.5 91.5t81.5 228.5q0 130 -71 199t-205 69q-76 0 -134.5 -25t-92 -68t-51.5 -90t-23 -100v-67h-37v366h18v-82l9 -2 q16 28 49 43q108 58 258 62q190 0 305 -83t115 -218q0 -114 -82 -215.5t-191 -120.5v-2q163 -20 269 -152.5t106 -298.5q0 -187 -143.5 -301t-378.5 -114q-94 0 -197.5 38.5t-183.5 110.5z" />
<glyph unicode="4" horiz-adv-x="1099" d="M45 291v45l21 36q22 37 55 95.5t76 136t90 169t92 184.5t86.5 192t69.5 182q14 49 14 78q0 43 -86 43v21q158 0 208.5 12.5t84.5 68.5l12 -4l-664 -1188h621v492h160v-492h143v-71h-143v-146q0 -86 23 -106.5t118 -20.5h37v-18h-584v18h105q94 0 117.5 20.5t23.5 106.5 v146h-680z" />
<glyph unicode="5" horiz-adv-x="1058" d="M78 135v254h41v-63q2 -51 26.5 -104t66 -98.5t106.5 -74.5t141 -29q171 0 261.5 116t90.5 337q0 220 -90.5 335.5t-261.5 115.5q-84 0 -167 -26.5t-142 -68.5h-39l41 574q3 70 10 70h602q83 0 104 15t31 83v12l23 -2l-17 -235h-579q-38 0 -57 -0.5t-38 -5.5t-25.5 -10 t-13.5 -21t-8.5 -31.5t-3.5 -48.5l-26 -350q65 38 146 60t159 22q236 0 379 -131t143 -357q0 -214 -145 -351.5t-377 -137.5q-97 2 -201.5 40.5t-179.5 110.5z" />
<glyph unicode="6" horiz-adv-x="1099" d="M78 674q0 242 64 427.5t180.5 286.5t267.5 101q37 0 71.5 -6t65.5 -17.5t54.5 -22t50 -28t39 -26.5t34.5 -26.5t25 -19.5v-210h-21v28q-11 53 -32 99t-57 92t-95 73t-135 27q-108 0 -187 -102.5t-117 -272.5t-38 -385h8q51 114 144 175t200 61q189 0 304.5 -132.5 t115.5 -349.5q0 -215 -128.5 -338.5t-342.5 -123.5q-211 0 -341 190t-130 500zM256 459q19 -211 94 -325t199 -114q146 0 223.5 109.5t77.5 316.5q0 217 -67.5 331t-196.5 114q-124 0 -225.5 -123.5t-104.5 -308.5z" />
<glyph unicode="7" horiz-adv-x="1017" d="M47 1133l25 340h909v-103q-28 -7 -83.5 -66t-123.5 -167.5t-129 -242.5t-102.5 -314t-42.5 -359v-221h-160v98q0 159 56.5 356t136.5 362.5t156 291t126 180.5q39 45 64 53l-2 13q-24 -8 -168 -8h-498q-83 0 -105 -15.5t-28 -83.5l-8 -114h-23z" />
<glyph unicode="8" horiz-adv-x="1157" d="M78 420q0 164 105 287t270 143v2q-110 19 -190.5 110.5t-80.5 204.5q0 145 109 233.5t289 88.5q178 0 287.5 -88.5t109.5 -233.5q0 -113 -80.5 -204.5t-191.5 -110.5v-2q165 -20 269.5 -143t104.5 -287q0 -196 -137.5 -316t-361.5 -120q-226 0 -364 120t-138 316z M250 420q0 -195 84.5 -297.5t245.5 -102.5t245 102.5t84 297.5q0 198 -84 302.5t-245 104.5t-245.5 -104.5t-84.5 -302.5zM322 1163q0 -146 66 -222.5t192 -76.5t192 76.5t66 222.5q0 141 -66 215t-192 74t-192 -74t-66 -215z" />
<glyph unicode="9" horiz-adv-x="1099" d="M78 1026q0 214 129 338.5t342 124.5q212 0 341.5 -189.5t129.5 -500.5q0 -242 -63.5 -427.5t-179.5 -286.5t-267 -101q-42 0 -84 9.5t-71 19.5t-64 30.5t-49.5 30.5t-43 31.5t-30.5 23.5v211h20v-29q12 -53 33.5 -99t57.5 -92t95.5 -73t135.5 -27q108 0 187 102.5 t117 272.5t38 385h-10q-51 -115 -143 -175t-199 -60q-189 0 -305.5 132.5t-116.5 348.5zM250 1026q0 -217 67.5 -330.5t196.5 -113.5q59 0 117 32t104.5 87t76 137.5t30.5 175.5q-19 211 -93.5 324.5t-199.5 113.5q-145 0 -222 -109.5t-77 -316.5z" />
<glyph unicode=":" horiz-adv-x="440" d="M119 72q0 40 27.5 66t74.5 26q43 0 70.5 -25t27.5 -67q0 -41 -26 -65.5t-72 -24.5q-45 0 -73.5 24t-28.5 66zM119 791q0 40 27.5 66t74.5 26q43 0 70.5 -25t27.5 -67q0 -41 -26 -66t-72 -25q-45 0 -73.5 24.5t-28.5 66.5z" />
<glyph unicode=";" horiz-adv-x="440" d="M119 72q0 44 26.5 68t75.5 24q44 0 71 -25.5t27 -66.5q0 -116 -50.5 -186t-133.5 -70v37q43 0 75.5 33t39.5 69q2 12 14 37l-8 4q-10 -14 -35 -14q-102 0 -102 90zM119 791q0 40 27.5 66t74.5 26q43 0 70.5 -25t27.5 -67q0 -41 -26 -66t-72 -25q-45 0 -73.5 24.5 t-28.5 66.5z" />
<glyph unicode="&#x3c;" horiz-adv-x="837" d="M33 633v24l657 476l78 -74l-506 -307q-18 -11 -55 -33.5t-56 -34t-42 -22.5t-35 -13v-8q10 -2 24 -7.5t36 -18t36.5 -21t47 -28.5t44.5 -27l506 -308l-78 -73z" />
<glyph unicode="=" horiz-adv-x="1038" d="M78 471l10 55h870l-8 -55h-872zM78 762l10 55h870l-8 -55h-872z" />
<glyph unicode="&#x3e;" horiz-adv-x="837" d="M70 231l508 312q18 11 52 32.5t51.5 32t38 21t32.5 12.5v8q-12 2 -32 12.5t-38.5 21.5t-51 32t-52.5 33l-508 311l80 74l655 -476v-24l-655 -475z" />
<glyph unicode="?" horiz-adv-x="907" d="M72 1120v393h22v-79q60 43 139 67.5t156 26.5q200 0 323.5 -90.5t123.5 -237.5q0 -74 -44.5 -146.5t-107.5 -130t-126 -111.5t-107.5 -109t-44.5 -103v-182h-62v182q0 62 33 127.5t80 121.5t94 111.5t80 118t33 121.5q0 134 -70 203.5t-203 69.5q-61 0 -107.5 -15.5 t-74.5 -39t-48 -61.5t-29.5 -71.5t-18.5 -81.5v-84h-41zM274 72q0 38 30 65t73 27t70.5 -25t27.5 -67q0 -41 -26 -65.5t-72 -24.5q-45 0 -74 24t-29 66z" />
<glyph unicode="@" horiz-adv-x="1935" d="M82 743q0 166 74.5 317.5t200 261t300 174.5t365.5 65q170 0 324 -55t265 -147.5t176.5 -221t65.5 -269.5q0 -159 -58 -294t-158.5 -213t-219.5 -78q-79 0 -137.5 60t-87.5 179h-16q-21 -46 -51.5 -86t-72 -76.5t-97.5 -57.5t-119 -21q-71 0 -136 27.5t-116 78.5 t-81 131.5t-30 179.5q0 100 33 192.5t97 168t170 121t241 45.5q137 0 262 -58q49 0 69 18.5t31 67.5l6 54l23 -4l-6 -70v-2l-82 -672q-6 -69 -6 -70q0 -81 29.5 -126.5t84.5 -45.5q106 0 196 73.5t143 200t53 275.5q0 178 -106 329t-288.5 239t-396.5 88q-184 0 -351 -62 t-287.5 -167t-191.5 -249t-71 -303q0 -214 107 -395.5t291 -287t401 -105.5q139 0 276 45t217 121l29 -25q-86 -81 -231.5 -128.5t-292.5 -47.5q-171 0 -327 65.5t-268 176t-178.5 263t-66.5 320.5zM637 668q0 -157 60.5 -253t158.5 -96q93 0 186.5 93t128.5 243l56 490 q-93 41 -199 41q-80 0 -146.5 -31t-111 -82t-75 -118.5t-44.5 -139.5t-14 -147z" />
<glyph unicode="A" horiz-adv-x="1708" d="M18 0v18h35q39 0 66 31.5t59 95.5l633 1328h174v-25q0 -75 21 -119l530 -1184q37 -82 51 -98q25 -29 82 -29h19v-18h-431v18h173v5q-31 10 -70 96l-125 280h-893l-121 -254q-12 -32 -12 -47q0 -36 29 -58t79 -22h111v-18h-410zM360 436h859l-383 854q-19 39 -19 82h-20 q0 -24 -27 -82z" />
<glyph unicode="B" horiz-adv-x="1333" d="M41 0v20h78q82 0 101.5 17.5t19.5 91.5v1217q0 73 -19.5 90.5t-101.5 17.5h-78v19h549q240 0 387 -85.5t147 -224.5q0 -95 -88 -181t-235 -105v-9q106 -7 199.5 -47.5t157 -102t100 -138t36.5 -154.5q0 -125 -82.5 -223t-223 -150.5t-314.5 -52.5h-633zM377 37h256 q211 0 339 107t128 282q0 185 -135.5 303.5t-346.5 118.5h-118v35h90q150 0 246 77.5t96 198.5q0 125 -102.5 201t-270.5 76h-182v-2q37 -34 37 -107v-1182q0 -70 -37 -104v-4z" />
<glyph unicode="C" horiz-adv-x="1468" d="M76 743q0 222 98 392t276.5 263t411.5 93q240 0 414 -131q11 -11 24 -41l15 4q-6 24 -6 59l-4 150h20l21 -592l-41 -2l-7 190q-9 135 -146 231.5t-306 96.5q-278 0 -424 -174t-146 -506q0 -367 152.5 -560t441.5 -193q163 0 303 75.5t199 202.5l39 -14 q-64 -148 -211 -225.5t-332 -77.5q-234 0 -413.5 94t-278 266t-98.5 397z" />
<glyph unicode="D" horiz-adv-x="1628" d="M41 0v18h78q82 0 101.5 17.5t19.5 91.5v1200q0 77 -21 102t-100 25h-78v19h635q261 0 461 -92t309.5 -259t109.5 -385q0 -219 -109.5 -386.5t-309.5 -259t-461 -91.5h-635zM377 37h237q365 0 556.5 179.5t191.5 520.5t-191.5 520t-556.5 179h-237v-2q37 -34 37 -97v-1202 q0 -62 -37 -96v-2z" />
<glyph unicode="E" horiz-adv-x="1243" d="M41 0v18h78q82 0 101.5 17.5t19.5 91.5v1219q0 73 -19.5 90.5t-101.5 17.5h-78v19h899q63 0 82 -19h4l-8 94l20 2l41 -555h-41l-8 144q-10 161 -95 229t-253 68h-317v-2q49 -45 49 -107v-536h90q44 0 75 3.5t65 16.5t55 35.5t35 63.5t14 98v71h20v-657h-20v113 q0 57 -14 98t-35 64t-55 36.5t-65.5 17t-74.5 3.5h-90v-609q0 -61 -49 -106v-2h448q164 0 244 64.5t92 211.5l14 164h35l-39 -555l-18 2l6 94h-2q-21 -18 -84 -18h-1020z" />
<glyph unicode="F" horiz-adv-x="1140" d="M41 0v18h78q82 0 101.5 17.5t19.5 91.5v1219q0 73 -19.5 90.5t-101.5 17.5h-78v19h936q26 0 37 -4t24 -15h2l-8 139l21 2l43 -600h-41l-11 144q-4 80 -37.5 139t-90 93t-125.5 49.5t-154 15.5h-272v-2q49 -45 49 -107v-610h90q45 0 79 3.5t74 16.5t66 35.5t43.5 63.5 t17.5 98v123h21v-678h-21v84q0 106 -72 161.5t-208 55.5h-90v-553q0 -73 20.5 -91t102.5 -18h145v-18h-641z" />
<glyph unicode="G" horiz-adv-x="1636" d="M74 741q0 222 96 392t272 263t406 93q242 0 412 -129q18 -18 24 -39l8 2q-6 24 -6 47l-10 199l22 2l35 -631l-39 -2l-8 135q-12 173 -146.5 276t-314.5 103q-270 0 -412.5 -173.5t-142.5 -504.5q0 -367 153.5 -560.5t446.5 -193.5q116 2 220 44.5t170 123.5v269 q0 86 -57.5 138t-151.5 52h-263v37h840v-37h-190v-729h-21v143q-2 39 -28 70t-62 31q-32 0 -65 -29q-76 -73 -180.5 -111t-221.5 -38q-233 0 -411.5 94t-276.5 266t-98 397z" />
<glyph unicode="H" horiz-adv-x="1445" d="M41 0v18h78q79 0 100 25t21 102v1182q0 77 -21 102t-100 25h-78v19h553v-19h-57q-79 0 -101 -25t-22 -102v-534h618v534q0 77 -22 102t-101 25h-57v19h555v-19h-80q-78 0 -98.5 -24.5t-20.5 -102.5v-1182q0 -78 20.5 -102.5t98.5 -24.5h80v-18h-555v18h61q77 0 98 25 t21 102v611h-618v-611q0 -77 22 -102t101 -25h57v-18h-553z" />
<glyph unicode="I" horiz-adv-x="653" d="M41 0v18h78q82 0 101.5 17t19.5 90v1223q0 73 -19.5 89.5t-101.5 16.5h-78v19h573v-23h-77q-83 0 -103 -17t-20 -90v-1218q0 -73 20 -90t103 -17h77v-18h-573z" />
<glyph unicode="J" horiz-adv-x="915" d="M53 242h21q0 -98 74 -158.5t194 -60.5q88 0 134 55.5t46 161.5v1157q0 23 4 32.5t17 20.5v4h-312v19h646v-19h-60q-119 0 -119 -108v-1014q0 -154 -100.5 -250t-255.5 -96q-130 0 -209.5 70t-79.5 186z" />
<glyph unicode="K" horiz-adv-x="1320" d="M41 0l6 18h80q80 0 99.5 20.5t19.5 106.5v1201q0 73 -19.5 90.5t-99.5 17.5h-80v19h516v-19h-20q-82 0 -101.5 -17.5t-19.5 -90.5v-461q67 0 99 5t46 23l357 408q39 48 39 78q0 55 -117 55h-21v19h498v-19h-29q-86 0 -175 -33t-154 -108l-359 -412l2 -8 q102 -21 178 -64.5t121 -104t70.5 -121t40.5 -136.5q8 -40 15.5 -93t12.5 -91.5t13 -81t19 -71.5t28.5 -54t44.5 -37t63 -12q49 0 107 41l29 20l12 -14l-29 -21q-94 -76 -184 -76q-64 0 -112 25.5t-75.5 54t-52 97t-33 103.5t-25.5 125q-9 43 -13 64q-16 75 -31.5 127 t-46 111.5t-70 96t-103 61t-145.5 24.5h-28v-721q0 -86 20.5 -106.5t102.5 -20.5h77v-18h-573z" />
<glyph unicode="L" horiz-adv-x="1159" d="M41 0v18h78q79 0 100 23.5t21 99.5v1207q0 73 -19.5 89.5t-101.5 16.5h-78v19h573v-19h-77q-83 0 -103 -16.5t-20 -89.5v-1203q0 -61 -49 -106v-2h305q69 0 120.5 5.5t100 20.5t80 41t52.5 68t26 100l16 205h45l-45 -581l-23 2l11 120h-2q-13 -11 -24 -14.5t-38 -3.5 h-948z" />
<glyph unicode="M" horiz-adv-x="2031" d="M20 0v20h37q84 0 109 28.5t31 117.5l59 1182v43q0 37 -21.5 51t-91.5 14h-90v19h332l584 -1174q35 -72 35 -88h10q0 22 30 88l584 1174h338v-19h-76q-78 0 -102.5 -20.5t-24.5 -69.5q0 -8 1 -26t1 -29l54 -1145q3 -91 28 -118.5t115 -27.5h49v-18h-588v18h82 q86 0 113 19.5t27 60.5v35l-46 1079q-2 37 -2 91h-14q0 -9 -35 -84l-606 -1227l-6 -14h-6l-6 14l-598 1204q-25 57 -25 86h-8q0 -33 -2 -70l-58 -1075q0 -9 -1 -26t-1 -23q0 -40 27.5 -56t116.5 -16h80v-18h-435z" />
<glyph unicode="N" horiz-adv-x="1310" d="M41 0v18h57q82 0 102.5 18t20.5 91v1219q0 73 -20.5 90.5t-102.5 17.5h-57v19h344l619 -1033q38 -59 38 -75h15q-2 23 -2 86v874q0 73 -32 101t-114 28h-100v19h463v-19h-35q-82 0 -113.5 -28t-31.5 -101v-1364h-17q0 8 -3 18t-11.5 25.5t-13.5 24.5t-18 30.5t-17 28.5 l-699 1153q-45 76 -45 80h-12q4 -23 4 -88v-1106q0 -74 19.5 -91.5t101.5 -17.5h59v-18h-399z" />
<glyph unicode="O" d="M70 737q0 338 229.5 545t605.5 207q247 0 436 -93.5t292.5 -264.5t103.5 -394q0 -224 -103.5 -395t-292.5 -264.5t-436 -93.5q-249 0 -438.5 93.5t-293 264.5t-103.5 395zM266 774q0 -367 165.5 -560.5t481.5 -193.5q306 0 466.5 174t160.5 504q0 367 -165 560.5 t-478 193.5q-307 0 -469 -174t-162 -504z" />
<glyph unicode="P" horiz-adv-x="1232" d="M41 0v18h78q82 0 101.5 17.5t19.5 91.5v1219q0 73 -19.5 90.5t-101.5 17.5h-78v19h567q255 0 410.5 -124t155.5 -327q0 -201 -155.5 -325t-410.5 -124h-194v-446q0 -73 20.5 -91t102.5 -18h55v-18h-551zM377 1423q37 -45 37 -127v-686h127q213 0 324.5 105.5t111.5 306.5 t-111.5 306.5t-324.5 105.5h-164v-11z" />
<glyph unicode="Q" horiz-adv-x="1810" d="M76 788q0 208 103 367.5t291.5 246.5t434.5 87q245 0 433 -87t290.5 -246.5t102.5 -367.5q0 -453 -691 -790q-64 -32 -179.5 -80t-143.5 -68q48 0 190.5 -28t300 -61t368 -61t378.5 -28q418 0 590 172l16 -12q-321 -321 -739 -321q-130 0 -272.5 30.5t-260.5 74t-224 87 t-196.5 74t-144.5 30.5q-37 0 -60.5 -24.5t-23.5 -56.5q0 -27 21 -49.5t55 -26.5l-8 -37q-55 9 -84 41t-29 74q0 50 24.5 84t75.5 65q31 18 141 65.5t179 86.5q265 148 392.5 343.5t127.5 415.5q0 324 -163 494t-474 170q-305 0 -465 -170t-160 -494q0 -153 53.5 -287 t172.5 -249.5t295 -185.5l-43 -21q-323 100 -498.5 300.5t-175.5 442.5z" />
<glyph unicode="R" horiz-adv-x="1388" d="M39 16h78q82 0 101.5 17.5t19.5 91.5v1218q0 74 -19.5 91.5t-101.5 17.5h-78v18h588q270 0 434 -125t164 -329q0 -184 -135 -304.5t-342 -138.5l-46 -2v-12q77 -7 144.5 -46t105.5 -95l113 -162q5 -7 25.5 -37t30 -42.5t29 -38t33 -38t32.5 -27.5t37 -21.5t36 -6.5 q30 0 66 25l49 39l12 -15l-49 -39q-105 -78 -188 -78q-41 0 -78 16.5t-72 51.5t-57 63t-56 76l-157 222q-64 88 -108.5 122.5t-114.5 34.5h-27v35h102q205 0 313.5 108t108.5 312t-108 311t-314 107h-233v-2q37 -34 37 -107v-1200q0 -73 20.5 -91t102.5 -18h131v-18h-627z " />
<glyph unicode="S" horiz-adv-x="1077" d="M63 502l39 -2l4 -84q9 -178 126 -288t282 -110q156 0 247 81t91 229q0 76 -41 139.5t-106 110t-144 90.5t-158.5 90.5t-144.5 100t-106 130t-41 168.5q0 149 122 240.5t322 91.5q165 0 299 -90q10 -6 37 -47l14 4q-5 16 -8 65l-6 109h22l25 -483l-41 -3l-4 86 q-4 63 -26.5 119t-62.5 102.5t-104 73.5t-145 27q-137 0 -212 -64.5t-75 -185.5q0 -58 25.5 -108t69 -89t100 -74.5t119 -69.5t125 -69.5t119 -78.5t100 -92t69 -115.5t25.5 -143.5q0 -182 -133 -280t-369 -98q-102 0 -184.5 26.5t-171.5 83.5q-12 8 -32 31.5t-24 36.5 l-10 -2q4 -9 10 -88l7 -129h-21z" />
<glyph unicode="T" horiz-adv-x="1212" d="M33 1118l35 475l24 -2l-10 -118h1048l-10 116l25 2l33 -473l-41 -2l-7 84q-6 75 -23 120t-54.5 71.5t-89 35.5t-136.5 9h-131v-1309q0 -74 19 -91.5t100 -17.5h168v-18h-754v18h172q81 0 100 17.5t19 91.5v1309h-135q-86 0 -138 -9t-90 -35t-54.5 -71.5t-20.5 -120.5 l-8 -84z" />
<glyph unicode="U" horiz-adv-x="1306" d="M41 1454v19h573v-19h-98q-82 0 -100.5 -17t-18.5 -91v-1084q0 -118 69.5 -180t203.5 -62q180 0 275 81t95 235v973q0 78 -25.5 111.5t-101.5 33.5h-84v19h439v-19h-58q-78 0 -103.5 -33t-25.5 -112v-973q0 -172 -105 -262t-306 -90t-325 97t-124 255v1010 q0 73 -20.5 90.5t-102.5 17.5h-57z" />
<glyph unicode="V" horiz-adv-x="1675" d="M20 1454v19h447v-19h-174v-4q36 -12 69 -94l519 -1141q18 -54 18 -74h29q0 35 22 82l506 1104q12 30 12 55q0 72 -108 72h-193v19h492v-19h-29q-52 0 -72.5 -21.5t-48.5 -87.5l-3 -6t-2.5 -5.5t-2.5 -6.5l-596 -1337l-121 -8l-598 1345q-35 79 -49 96q-26 31 -84 31h-33z " />
<glyph unicode="W" horiz-adv-x="2435" d="M20 1454v19l326 -3v-28q0 -30 16 -88l467 -1141q13 -39 13 -74h22q0 15 17 76l321 975l-45 137q-24 76 -48.5 101.5t-82.5 25.5h-53v19h506v-19h-215v-4q22 -7 41.5 -35.5t27.5 -58.5l377 -1141q14 -65 14 -74h31q0 29 21 80l442 1108q14 32 14 60q0 65 -112 65h-86v19 h383v-19h-33q-26 0 -44.5 -7.5t-33.5 -27.5t-23.5 -37.5t-23.5 -54.5l-533 -1335l-127 -10l-378 1142l-373 -1134l-127 -8l-537 1345q-26 79 -49 103t-82 24h-33z" />
<glyph unicode="X" horiz-adv-x="1292" d="M41 0v12h20q68 0 106.5 31.5t96.5 130.5l307 547l-292 569q-49 94 -87.5 127t-87.5 33h-26v18h387v-18h-123v-4q25 -8 60 -41.5t55 -71.5l248 -483l266 446q49 76 49 113q0 23 -23 33t-77 10h-80v18h377v-18h-27q-51 0 -84 -30.5t-92 -129.5l-287 -483l326 -633 q64 -104 82 -124q32 -36 82 -36h38v-18h-522v18h47q119 0 119 52q0 32 -43 100l-264 514l-283 -506q-47 -80 -47 -115q0 -25 24.5 -35t80.5 -10h77v-16h-403z" />
<glyph unicode="Y" horiz-adv-x="1294" d="M23 1458v17h426v-17h-140v-4q28 -9 82 -99q7 -10 10 -16l291 -503q26 -46 29 -66h16q2 12 29 66l270 475q33 54 33 88q0 57 -96 57h-135v17h434v-17h-37q-49 0 -75.5 -28.5t-76.5 -116.5l-333 -586v-600q0 -74 19.5 -91.5t100.5 -17.5h166v-16h-776v18h193 q81 0 99.5 17.5t18.5 91.5v569l-352 619q-9 15 -24 42.5t-21 37t-18.5 26t-23 22t-26.5 10.5t-36 5h-47z" />
<glyph unicode="Z" horiz-adv-x="1171" d="M-2 18q28 0 74 41t88 119l590 1127q25 47 73 82t92 45v6h-442q-87 0 -141.5 -9t-97.5 -35t-63.5 -73t-25.5 -123l-2 -41l-14 2l25 434l14 -2l-6 -137q13 12 23 15.5t36 3.5h877v-19q-24 0 -69 -40t-87 -120l-590 -1122q-48 -90 -108 -129v-6h516q85 0 138 8.5t94 32.5 t61 68t24 114l4 76l23 -2l-27 -436l-22 2l6 116h-2q-13 -11 -20.5 -13.5t-32.5 -2.5h-1006z" />
<glyph unicode="[" horiz-adv-x="477" d="M70 -463q8 82 8 170v1892h381v-36h-258v-2q39 -36 39 -107v-1782q0 -68 -39 -104v-4h258v-37h-389v10z" />
<glyph unicode="\" horiz-adv-x="1099" d="M41 1479l53 24l965 -1855l-51 -25z" />
<glyph unicode="]" horiz-adv-x="477" d="M18 -436h258v4q-36 33 -36 104v1782q0 74 36 107v2h-258v36h381v-1892q0 -78 9 -170v-10h-390v37z" />
<glyph unicode="^" horiz-adv-x="829" d="M61 1012l351 313h8l350 -313l-68 -64l-180 191q-89 89 -100 147h-12q-11 -57 -101 -147l-182 -191z" />
<glyph unicode="_" horiz-adv-x="919" d="M0 -236h920v-55h-920v55z" />
<glyph unicode="`" horiz-adv-x="399" d="M41 1370q0 14 10 21l37 26q12 8 21 8q7 0 20 -10l219 -239l-31 -25l-241 172l-29 31q-6 9 -6 16z" />
<glyph unicode="a" horiz-adv-x="1214" d="M57 319q0 192 165.5 309t436.5 117h177v439q0 132 -68 200t-199 68q-162 0 -252 -76.5t-96 -201.5l-6 -127h-41l25 483h22l-6 -109q-8 -58 -10 -65l16 -4q2 6 14 23t21 24q134 90 311 90q218 0 333.5 -85.5t115.5 -246.5v-1012q0 -65 12.5 -84.5t61.5 -19.5q7 0 22 1 t23 1l39 2l2 -18q-135 -12 -250 -45v16q0 50 -21 168t-22 149h-23q-48 -174 -147 -252.5t-232 -78.5q-184 0 -304 93t-120 242zM252 319q0 -126 71 -203t187 -77q61 0 118 26t104 75.5t75.5 133t28.5 189.5v246h-164q-189 0 -304.5 -107.5t-115.5 -282.5z" />
<glyph unicode="b" horiz-adv-x="1333" d="M41 0v20h78q82 0 101.5 17.5t19.5 91.5v1217q0 73 -19.5 90.5t-101.5 17.5h-78v19h549q240 0 387 -85.5t147 -224.5q0 -95 -88 -181t-235 -105v-9q106 -7 199.5 -47.5t157 -102t100 -138t36.5 -154.5q0 -125 -82.5 -223t-223 -150.5t-314.5 -52.5h-633zM377 37h256 q211 0 339 107t128 282q0 185 -135.5 303.5t-346.5 118.5h-118v35h90q150 0 246 77.5t96 198.5q0 125 -102.5 201t-270.5 76h-182v-2q37 -34 37 -107v-1182q0 -70 -37 -104v-4z" />
<glyph unicode="c" horiz-adv-x="1468" d="M76 743q0 222 98 392t276.5 263t411.5 93q240 0 414 -131q11 -11 24 -41l15 4q-6 24 -6 59l-4 150h20l21 -592l-41 -2l-7 190q-9 135 -146 231.5t-306 96.5q-278 0 -424 -174t-146 -506q0 -367 152.5 -560t441.5 -193q163 0 303 75.5t199 202.5l39 -14 q-64 -148 -211 -225.5t-332 -77.5q-234 0 -413.5 94t-278 266t-98.5 397z" />
<glyph unicode="d" horiz-adv-x="1628" d="M41 0v18h78q82 0 101.5 17.5t19.5 91.5v1200q0 77 -21 102t-100 25h-78v19h635q261 0 461 -92t309.5 -259t109.5 -385q0 -219 -109.5 -386.5t-309.5 -259t-461 -91.5h-635zM377 37h237q365 0 556.5 179.5t191.5 520.5t-191.5 520t-556.5 179h-237v-2q37 -34 37 -97v-1202 q0 -62 -37 -96v-2z" />
<glyph unicode="e" horiz-adv-x="1695" d="M70 741q0 222 103.5 392t292 263t435.5 93q196 0 359.5 -76.5t262.5 -219.5t99 -325v-10q0 -25 -20.5 -42t-49.5 -17h-1278v-25q0 -361 170 -557.5t463 -196.5q225 0 398 83.5t272 234.5l31 -23q-105 -158 -289 -244.5t-422 -86.5q-235 0 -423 93.5t-296 267t-108 396.5z M276 836l1135 14q16 0 16 18q0 263 -145 423.5t-383 160.5q-289 0 -448.5 -157.5t-174.5 -458.5z" />
<glyph unicode="f" horiz-adv-x="1140" d="M41 0v18h78q82 0 101.5 17.5t19.5 91.5v1219q0 73 -19.5 90.5t-101.5 17.5h-78v19h936q26 0 37 -4t24 -15h2l-8 139l21 2l43 -600h-41l-11 144q-4 80 -37.5 139t-90 93t-125.5 49.5t-154 15.5h-272v-2q49 -45 49 -107v-610h90q45 0 79 3.5t74 16.5t66 35.5t43.5 63.5 t17.5 98v123h21v-678h-21v84q0 106 -72 161.5t-208 55.5h-90v-553q0 -73 20.5 -91t102.5 -18h145v-18h-641z" />
<glyph unicode="g" horiz-adv-x="1636" d="M74 741q0 222 96 392t272 263t406 93q242 0 412 -129q18 -18 24 -39l8 2q-6 24 -6 47l-10 199l22 2l35 -631l-39 -2l-8 135q-12 173 -146.5 276t-314.5 103q-270 0 -412.5 -173.5t-142.5 -504.5q0 -367 153.5 -560.5t446.5 -193.5q116 2 220 44.5t170 123.5v269 q0 86 -57.5 138t-151.5 52h-263v37h840v-37h-190v-729h-21v143q-2 39 -28 70t-62 31q-32 0 -65 -29q-76 -73 -180.5 -111t-221.5 -38q-233 0 -411.5 94t-276.5 266t-98 397z" />
<glyph unicode="h" horiz-adv-x="1445" d="M41 0v18h78q79 0 100 25t21 102v1182q0 77 -21 102t-100 25h-78v19h553v-19h-57q-79 0 -101 -25t-22 -102v-534h618v534q0 77 -22 102t-101 25h-57v19h555v-19h-80q-78 0 -98.5 -24.5t-20.5 -102.5v-1182q0 -78 20.5 -102.5t98.5 -24.5h80v-18h-555v18h61q77 0 98 25 t21 102v611h-618v-611q0 -77 22 -102t101 -25h57v-18h-553z" />
<glyph unicode="i" horiz-adv-x="636" d="M41 0v18h78q82 0 101.5 17t19.5 90v1223q0 73 -19.5 89.5t-101.5 16.5h-78v19h573v-23h-77q-83 0 -103 -17t-20 -90v-1218q0 -73 20 -90t103 -17h77v-18h-573z" />
<glyph unicode="j" horiz-adv-x="915" d="M53 242h21q0 -98 74 -158.5t194 -60.5q88 0 134 55.5t46 161.5v1157q0 23 4 32.5t17 20.5v4h-312v19h646v-19h-60q-119 0 -119 -108v-1014q0 -154 -100.5 -250t-255.5 -96q-130 0 -209.5 70t-79.5 186z" />
<glyph unicode="k" horiz-adv-x="1320" d="M41 0l6 18h80q80 0 99.5 20.5t19.5 106.5v1201q0 73 -19.5 90.5t-99.5 17.5h-80v19h516v-19h-20q-82 0 -101.5 -17.5t-19.5 -90.5v-461q67 0 99 5t46 23l357 408q39 48 39 78q0 55 -117 55h-21v19h498v-19h-29q-86 0 -175 -33t-154 -108l-359 -412l2 -8 q102 -21 178 -64.5t121 -104t70.5 -121t40.5 -136.5q8 -40 15.5 -93t12.5 -91.5t13 -81t19 -71.5t28.5 -54t44.5 -37t63 -12q49 0 107 41l29 20l12 -14l-29 -21q-94 -76 -184 -76q-64 0 -112 25.5t-75.5 54t-52 97t-33 103.5t-25.5 125q-9 43 -13 64q-16 75 -31.5 127 t-46 111.5t-70 96t-103 61t-145.5 24.5h-28v-721q0 -86 20.5 -106.5t102.5 -20.5h77v-18h-573z" />
<glyph unicode="l" horiz-adv-x="1159" d="M41 0v18h78q79 0 100 23.5t21 99.5v1207q0 73 -19.5 89.5t-101.5 16.5h-78v19h573v-19h-77q-83 0 -103 -16.5t-20 -89.5v-1203q0 -61 -49 -106v-2h305q69 0 120.5 5.5t100 20.5t80 41t52.5 68t26 100l16 205h45l-45 -581l-23 2l11 120h-2q-13 -11 -24 -14.5t-38 -3.5 h-948z" />
<glyph unicode="m" horiz-adv-x="2009" d="M20 1362l175 33q71 13 114 51t43 98v8h17v-268q0 -148 -4 -188h20q11 77 37 141q107 252 356 252q86 0 146 -20t92.5 -58.5t46.5 -84.5t14 -107v-123h8q3 44 24.5 107.5t33.5 82.5q58 100 136.5 151.5t197.5 51.5q149 0 241 -71t92 -201v-1090q0 -73 20.5 -91t102.5 -18 h58v-18h-506v18h172v5q-13 11 -17 20.5t-4 32.5v1122q0 121 -50.5 188.5t-129.5 67.5q-155 0 -249.5 -129.5t-94.5 -343.5v-854q0 -73 20.5 -91t102.5 -18h57v-18h-485v18h151v5q-13 11 -16.5 20t-3.5 33v1122q0 121 -50.5 188.5t-129.5 67.5q-155 0 -249.5 -129.5 t-94.5 -343.5v-854q0 -73 20.5 -91t102.5 -18h77v-18h-573l-2 18h78q82 0 101.5 17.5t19.5 91.5v1167q0 28 -21.5 47t-54.5 19h-6l-133 -10z" />
<glyph unicode="n" horiz-adv-x="1435" d="M20 1362l175 33q72 13 118.5 51t46.5 98v8h19v-268q0 -179 -4 -215h14q11 68 37 133q50 131 161.5 209t250.5 78q180 0 279.5 -83.5t99.5 -225.5v-1053q0 -74 18.5 -91.5t99.5 -17.5h82v-18h-575v18h219v5q-13 11 -17 20.5t-4 32.5v1069q0 155 -52.5 232t-168.5 77 q-174 0 -289.5 -139.5t-115.5 -360.5v-827q0 -73 20.5 -91t102.5 -18h77v-18h-573l-2 18h78q82 0 101.5 17.5t19.5 91.5v1167q0 28 -21.5 47t-54.5 19h-6l-133 -10z" />
<glyph unicode="o" d="M70 737q0 338 229.5 545t605.5 207q247 0 436 -93.5t292.5 -264.5t103.5 -394q0 -224 -103.5 -395t-292.5 -264.5t-436 -93.5q-249 0 -438.5 93.5t-293 264.5t-103.5 395zM266 774q0 -367 165.5 -560.5t481.5 -193.5q306 0 466.5 174t160.5 504q0 367 -165 560.5 t-478 193.5q-307 0 -469 -174t-162 -504z" />
<glyph unicode="p" horiz-adv-x="1232" d="M41 0v18h78q82 0 101.5 17.5t19.5 91.5v1219q0 73 -19.5 90.5t-101.5 17.5h-78v19h567q255 0 410.5 -124t155.5 -327q0 -201 -155.5 -325t-410.5 -124h-194v-446q0 -73 20.5 -91t102.5 -18h55v-18h-551zM377 1423q37 -45 37 -127v-686h127q213 0 324.5 105.5t111.5 306.5 t-111.5 306.5t-324.5 105.5h-164v-11z" />
<glyph unicode="q" horiz-adv-x="1810" d="M76 788q0 208 103 367.5t291.5 246.5t434.5 87q245 0 433 -87t290.5 -246.5t102.5 -367.5q0 -453 -691 -790q-64 -32 -179.5 -80t-143.5 -68q48 0 190.5 -28t300 -61t368 -61t378.5 -28q418 0 590 172l16 -12q-321 -321 -739 -321q-130 0 -272.5 30.5t-260.5 74t-224 87 t-196.5 74t-144.5 30.5q-37 0 -60.5 -24.5t-23.5 -56.5q0 -27 21 -49.5t55 -26.5l-8 -37q-55 9 -84 41t-29 74q0 50 24.5 84t75.5 65q31 18 141 65.5t179 86.5q265 148 392.5 343.5t127.5 415.5q0 324 -163 494t-474 170q-305 0 -465 -170t-160 -494q0 -153 53.5 -287 t172.5 -249.5t295 -185.5l-43 -21q-323 100 -498.5 300.5t-175.5 442.5z" />
<glyph unicode="r" horiz-adv-x="1388" d="M39 16h78q82 0 101.5 17.5t19.5 91.5v1218q0 74 -19.5 91.5t-101.5 17.5h-78v18h588q270 0 434 -125t164 -329q0 -184 -135 -304.5t-342 -138.5l-46 -2v-12q77 -7 144.5 -46t105.5 -95l113 -162q5 -7 25.5 -37t30 -42.5t29 -38t33 -38t32.5 -27.5t37 -21.5t36 -6.5 q30 0 66 25l49 39l12 -15l-49 -39q-105 -78 -188 -78q-41 0 -78 16.5t-72 51.5t-57 63t-56 76l-157 222q-64 88 -108.5 122.5t-114.5 34.5h-27v35h102q205 0 313.5 108t108.5 312t-108 311t-314 107h-233v-2q37 -34 37 -107v-1200q0 -73 20.5 -91t102.5 -18h131v-18h-627z " />
<glyph unicode="s" horiz-adv-x="1077" d="M63 502l39 -2l4 -84q9 -178 126 -288t282 -110q156 0 247 81t91 229q0 76 -41 139.5t-106 110t-144 90.5t-158.5 90.5t-144.5 100t-106 130t-41 168.5q0 149 122 240.5t322 91.5q165 0 299 -90q10 -6 37 -47l14 4q-5 16 -8 65l-6 109h22l25 -483l-41 -3l-4 86 q-4 63 -26.5 119t-62.5 102.5t-104 73.5t-145 27q-137 0 -212 -64.5t-75 -185.5q0 -58 25.5 -108t69 -89t100 -74.5t119 -69.5t125 -69.5t119 -78.5t100 -92t69 -115.5t25.5 -143.5q0 -182 -133 -280t-369 -98q-102 0 -184.5 26.5t-171.5 83.5q-12 8 -32 31.5t-24 36.5 l-10 -2q4 -9 10 -88l7 -129h-21z" />
<glyph unicode="t" horiz-adv-x="1212" d="M33 1118l35 475l24 -2l-10 -118h1048l-10 116l25 2l33 -473l-41 -2l-7 84q-6 75 -23 120t-54.5 71.5t-89 35.5t-136.5 9h-131v-1309q0 -74 19 -91.5t100 -17.5h168v-18h-754v18h172q81 0 100 17.5t19 91.5v1309h-135q-86 0 -138 -9t-90 -35t-54.5 -71.5t-20.5 -120.5 l-8 -84z" />
<glyph unicode="u" horiz-adv-x="1372" d="M27 1395v18h129q51 0 95 9t77.5 35t33.5 65v8h19v-1219q0 -139 60 -215t161 -76q180 0 292 144.5t112 378.5v803q0 73 -20.5 90.5t-102.5 17.5h-37v19l348 8v-17q-8 -82 -8 -108v-1211q0 -73 19.5 -90.5t101.5 -17.5h39l-3 -19q-157 -6 -305 -36v16q11 113 11 117v32 q0 27 -2.5 127.5t-2.5 118.5v8h-16q-17 -107 -59.5 -189t-103.5 -131t-132.5 -73t-152.5 -24q-171 0 -276 81t-105 228v1040q0 62 -66 62h-106z" />
<glyph unicode="v" horiz-adv-x="1675" d="M20 1454v19h447v-19h-174v-4q36 -12 69 -94l519 -1141q18 -54 18 -74h29q0 35 22 82l506 1104q12 30 12 55q0 72 -108 72h-193v19h492v-19h-29q-52 0 -72.5 -21.5t-48.5 -87.5l-3 -6t-2.5 -5.5t-2.5 -6.5l-596 -1337l-121 -8l-598 1345q-35 79 -49 96q-26 31 -84 31h-33z " />
<glyph unicode="w" horiz-adv-x="2435" d="M20 1454v19l326 -3v-28q0 -30 16 -88l467 -1141q13 -39 13 -74h22q0 15 17 76l321 975l-45 137q-24 76 -48.5 101.5t-82.5 25.5h-53v19h506v-19h-215v-4q22 -7 41.5 -35.5t27.5 -58.5l377 -1141q14 -65 14 -74h31q0 29 21 80l442 1108q14 32 14 60q0 65 -112 65h-86v19 h383v-19h-33q-26 0 -44.5 -7.5t-33.5 -27.5t-23.5 -37.5t-23.5 -54.5l-533 -1335l-127 -10l-378 1142l-373 -1134l-127 -8l-537 1345q-26 79 -49 103t-82 24h-33z" />
<glyph unicode="x" horiz-adv-x="1292" d="M41 0v12h20q68 0 106.5 31.5t96.5 130.5l307 547l-292 569q-49 94 -87.5 127t-87.5 33h-26v18h387v-18h-123v-4q25 -8 60 -41.5t55 -71.5l248 -483l266 446q49 76 49 113q0 23 -23 33t-77 10h-80v18h377v-18h-27q-51 0 -84 -30.5t-92 -129.5l-287 -483l326 -633 q64 -104 82 -124q32 -36 82 -36h38v-18h-522v18h47q119 0 119 52q0 32 -43 100l-264 514l-283 -506q-47 -80 -47 -115q0 -25 24.5 -35t80.5 -10h77v-16h-403z" />
<glyph unicode="y" horiz-adv-x="1294" d="M23 1458v17h426v-17h-140v-4q28 -9 82 -99q7 -10 10 -16l291 -503q26 -46 29 -66h16q2 12 29 66l270 475q33 54 33 88q0 57 -96 57h-135v17h434v-17h-37q-49 0 -75.5 -28.5t-76.5 -116.5l-333 -586v-600q0 -74 19.5 -91.5t100.5 -17.5h166v-16h-776v18h193 q81 0 99.5 17.5t18.5 91.5v569l-352 619q-9 15 -24 42.5t-21 37t-18.5 26t-23 22t-26.5 10.5t-36 5h-47z" />
<glyph unicode="z" horiz-adv-x="1171" d="M-2 18q28 0 74 41t88 119l590 1127q25 47 73 82t92 45v6h-442q-87 0 -141.5 -9t-97.5 -35t-63.5 -73t-25.5 -123l-2 -41l-14 2l25 434l14 -2l-6 -137q13 12 23 15.5t36 3.5h877v-19q-24 0 -69 -40t-87 -120l-590 -1122q-48 -90 -108 -129v-6h516q85 0 138 8.5t94 32.5 t61 68t24 114l4 76l23 -2l-27 -436l-22 2l6 116h-2q-13 -11 -20.5 -13.5t-32.5 -2.5h-1006z" />
<glyph unicode="{" horiz-adv-x="618" d="M45 559v10q16 16 42 41.5t38 37t30.5 30.5t26.5 28t20 23.5t16.5 23t10.5 19.5t7.5 20.5t1.5 20.5q0 52 -46.5 245.5t-46.5 252.5q0 130 71.5 210.5t182.5 80.5h201v-37h-121q-90 0 -140 -48t-50 -128q0 -62 51 -282t51 -259q0 -35 -54.5 -86t-132 -109t-102.5 -84 q-3 -1 -3 -5t3 -5q21 -20 101 -79.5t134 -111t54 -87.5q0 -39 -51 -258t-51 -281q0 -80 50 -129t140 -49h121v-37h-201q-111 0 -182.5 80.5t-71.5 210.5q0 59 46.5 253t46.5 246q0 11 -2 20.5t-7 20.5t-10 19.5t-16.5 22t-20.5 23.5t-26.5 27.5l-30.5 30.5t-37.5 36.5 t-42.5 41.5z" />
<glyph unicode="|" horiz-adv-x="337" d="M119 -473v2072h102v-2072h-102z" />
<glyph unicode="}" horiz-adv-x="618" d="M20 -438h119q92 0 142.5 49t50.5 129q0 62 -52.5 281t-52.5 258q0 36 54.5 87.5t135 110.5t101.5 80q2 1 2 5t-2 5q-22 23 -75 64t-98.5 74.5t-81.5 73t-36 67.5q0 39 52.5 258.5t52.5 281.5q0 80 -50.5 128.5t-142.5 48.5h-119v36h201q110 0 181 -80.5t71 -209.5 q0 -59 -45 -252.5t-45 -245.5q0 -40 31.5 -79.5t124.5 -131.5q22 -21 34 -33v-10q-125 -124 -145 -146q-45 -53 -45 -96q0 -52 45 -246t45 -253q0 -129 -71 -210t-181 -81h-201v37z" />
<glyph unicode="~" horiz-adv-x="1038" d="M57 586l29 108q38 137 166 137q74 0 189.5 -44t224 -88t165.5 -44q68 0 87 82l26 107l41 -8l-24 -107q-42 -149 -177 -149q-61 0 -148 28t-159.5 61t-149.5 61t-122 28q-63 0 -80 -72l-31 -108z" />
<glyph unicode="&#xa1;" horiz-adv-x="518" d="M160 1399q0 40 27.5 65t74.5 25q44 0 71 -24t27 -66q0 -41 -26.5 -66.5t-71.5 -25.5t-73.5 25t-28.5 67zM180 -29q0 199 30 541t30 541h39q0 -199 30.5 -541t30.5 -541q0 -18 -78 -18q-82 0 -82 18z" />
<glyph unicode="&#xa2;" horiz-adv-x="1124" d="M76 733q0 238 146 385t384 150v276h39v-276q159 -7 270 -74q21 -16 31 -49l8 2q-1 2 -4 11t-4.5 17.5t-1.5 22.5l-2 68l19 2l20 -369l-39 -2l-4 68q-16 120 -98 189t-193 77v-985q93 0 167 31t119 74.5t89 109.5l35 -21q-36 -52 -72.5 -90.5t-85.5 -72t-112.5 -51 t-139.5 -17.5v-281h-41v281q-240 11 -385 154t-145 370zM248 760q0 -237 92 -368.5t266 -143.5v981q-174 -3 -266 -123.5t-92 -345.5z" />
<glyph unicode="&#xa3;" horiz-adv-x="1226" d="M109 98q0 56 43.5 93.5t134.5 37.5q17 0 67 -4q27 142 27 447v39h-223v55h223v352q0 167 98.5 269t259.5 102q195 0 301 -117v86h23v-424h-41v131q0 131 -72 200t-211 69q-97 0 -147.5 -75t-50.5 -216v-377h340v-55h-371v-4q31 -15 31 -66q0 -92 -11.5 -221.5 t-40.5 -218.5q65 -15 189 -46.5t202.5 -49t110.5 -17.5q103 0 127 105l41 202l23 -6l-56 -278q-14 -75 -60.5 -112.5t-113.5 -37.5q-48 0 -123 26.5t-200 82t-164 71.5q-82 -178 -221 -178q-58 0 -96.5 38.5t-38.5 96.5zM150 98q0 -38 22 -61t59 -23q69 0 113 168 q-43 11 -84 11q-44 0 -77 -30t-33 -65z" />
<glyph unicode="&#xa4;" horiz-adv-x="759" d="M72 895l45 35l92 -84q73 51 168 51q99 0 174 -57l96 86l39 -41l-92 -84q59 -68 59 -156q0 -85 -57 -151l88 -80l-45 -35l-82 76q-78 -60 -180 -60q-94 0 -170 54l-90 -80l-39 41l84 77q-60 66 -60 158q0 97 64 164zM162 645q0 -82 61 -137q65 -59 154 -59t151 59 q64 58 64 137q0 81 -64 139q-61 58 -151 58t-154 -58q-61 -55 -61 -139z" />
<glyph unicode="&#xa5;" horiz-adv-x="1294" d="M25 1456v17h426v-17h-140v-4q28 -9 82 -99q7 -10 10 -16l291 -503q26 -46 29 -66h16q2 12 29 66l270 475q31 57 31 90q0 57 -96 57h-135v17h434v-17h-37q-49 0 -75.5 -28.5t-76.5 -116.5l-333 -586v-92h301l-9 -35h-292v-170h301l-9 -35h-292v-268q0 -74 19.5 -91.5 t100.5 -17.5h148v-16h-758l2 16h193q81 0 99.5 17.5t18.5 91.5v268h-288l8 35h280v170h-288l8 35h280v61l-352 619q-9 15 -24 42.5t-21 37t-18.5 26t-23 22t-26.5 10.5t-36 5h-47z" />
<glyph unicode="&#xa6;" horiz-adv-x="337" d="M119 362h102v-835h-102v835zM119 764v835h102v-835h-102z" />
<glyph unicode="&#xa7;" horiz-adv-x="1280" d="M78 686q0 88 57.5 182.5t124.5 135.5q-59 75 -59 174q0 148 124 238.5t326 90.5q211 0 338 -114v86h23v-430l-41 14v106q0 56 -19 107.5t-56.5 95t-101 70t-143.5 26.5q-152 0 -231.5 -67.5t-79.5 -196.5q0 -31 10.5 -59.5t24 -49.5t43 -44t49.5 -36.5t63.5 -34t65 -29.5 t73 -29.5t70.5 -28.5q154 -65 195 -86q182 -94 238 -232q28 -69 28 -153q0 -88 -56 -184t-122 -136v-2q59 -75 59 -174q0 -148 -123.5 -237.5t-326.5 -89.5q-213 0 -340 114v-88h-23v430l41 -14v-104q0 -55 19.5 -107t57 -96.5t101.5 -71.5t144 -27q152 0 231.5 69t79.5 200 q0 31 -10.5 59.5t-24 49.5t-43 44t-49.5 36.5t-63.5 34t-65 29.5t-73 29.5t-70.5 28.5q-155 65 -190 83q-185 94 -244 228q-31 72 -31 160zM201 702q0 -41 11.5 -77.5t27 -63t45.5 -52.5t54 -42.5t65.5 -36.5t66.5 -30t71 -28t66 -26q9 -4 40.5 -16.5t42.5 -17t40 -17 t42.5 -18.5t39 -18.5t40 -20.5t36 -20.5t36.5 -23.5t31.5 -24t30.5 -27q92 85 92 258q0 41 -11.5 77.5t-27 63t-45.5 53t-53 43t-65.5 36.5t-66 30t-71 28.5t-65.5 25.5q-102 42 -145 60t-116.5 60t-117.5 85q-94 -87 -94 -261z" />
<glyph unicode="&#xa8;" horiz-adv-x="817" d="M78 1227q0 55 28 78q22 22 82 22q64 0 86 -22q25 -21 25 -78q0 -55 -25 -76q-20 -25 -86 -25q-57 0 -82 25q-28 23 -28 76zM520 1227q0 53 25 78q26 22 86 22q58 0 84 -22q24 -24 24 -78q0 -52 -24 -76q-25 -25 -84 -25q-56 0 -86 25q-25 25 -25 76z" />
<glyph unicode="&#xa9;" horiz-adv-x="1208" d="M61 1026q0 89 41 173.5t111.5 148.5t173.5 102.5t219 38.5q143 0 267 -58t200 -165.5t76 -239.5q0 -133 -77.5 -240.5t-201 -165t-264.5 -57.5q-148 0 -273 61t-198.5 167.5t-73.5 234.5zM98 1026q0 -81 36.5 -157.5t100.5 -136t161 -96t210 -36.5q110 0 206 36 t160.5 95.5t101 136.5t36.5 158q0 120 -70 218.5t-185.5 153t-248.5 54.5q-212 0 -360 -124t-148 -302zM360 1026q0 114 72.5 186t183.5 72q81 0 148 -39q13 -10 16 -24l4 2l-3 8q-3 8 -3 16l-4 43l21 2l10 -164h-31v2q-7 62 -51.5 93.5t-106.5 31.5q-82 0 -124.5 -55.5 t-42.5 -161.5q0 -116 48 -176.5t140 -60.5q115 0 176 96l27 -10q-66 -113 -209 -113q-118 0 -194.5 69.5t-76.5 182.5z" />
<glyph unicode="&#xaa;" horiz-adv-x="1007" d="M68 942q0 122 129 196t352 74h158v68q0 113 -52 171t-151 58q-258 0 -258 -172v-49q-54 0 -82.5 22.5t-28.5 63.5v82q29 0 88 33q103 57 279 57q170 0 260 -75t90 -218v-385q0 -58 11 -76t55 -18q4 0 17.5 1t22.5 1l35 2v-18q-115 -12 -223 -41v14q0 46 -9.5 153.5 t-10.5 133.5h-21q-28 -105 -87 -174.5t-127 -97t-146 -27.5q-144 0 -222.5 58.5t-78.5 162.5zM227 942q0 -172 168 -172q55 0 108.5 23.5t100 68t75 120t28.5 169.5v25h-146q-173 0 -253.5 -57t-80.5 -177z" />
<glyph unicode="&#xab;" horiz-adv-x="1017" d="M78 469v6l411 377l78 -76l-256 -201q-56 -48 -88.5 -71t-56.5 -27v-8q24 -4 56.5 -27t88.5 -71l256 -203l-78 -74zM453 469v6l407 377l80 -76l-256 -201q-105 -91 -145 -98v-8q40 -7 145 -98l256 -203l-80 -74z" />
<glyph unicode="&#xac;" horiz-adv-x="837" d="M61 618l2 54h717v-412l-59 4v354h-660z" />
<glyph unicode="&#xad;" horiz-adv-x="536" d="M41 563l8 55h449l-11 -55h-446z" />
<glyph unicode="&#xae;" horiz-adv-x="1208" d="M61 1026q0 89 41 173.5t111.5 148.5t173.5 102.5t219 38.5q143 0 267 -58t200 -165.5t76 -239.5q0 -133 -77.5 -240.5t-201 -165t-264.5 -57.5q-148 0 -273 61t-198.5 167.5t-73.5 234.5zM98 1026q0 -81 36.5 -158t101 -136.5t161.5 -95.5t209 -36q108 0 203.5 35.5 t160.5 94t102.5 136t37.5 160.5q0 118 -68.5 216t-184.5 154t-251 56q-212 0 -360 -124t-148 -302zM358 776v17h29q37 0 46 8t9 41v407q0 33 -9 41t-46 8h-22v17h213q113 0 182 -43t69 -115q0 -60 -47.5 -104t-136.5 -54v-4q45 -10 88 -63l51 -72q20 -29 28 -39t19 -18 t23 -8h8l31 6l2 -17q-82 -16 -88 -16q-26 0 -45 16t-49 58l-62 84q-29 39 -50 55t-52 16h-35v-155q0 -34 8 -41.5t45 -7.5h11v-17h-220zM496 1290q18 -15 18 -47v-223h72q79 0 120.5 35.5t41.5 101.5t-41.5 100.5t-120.5 34.5h-90v-2z" />
<glyph unicode="&#xaf;" horiz-adv-x="817" d="M78 1182l12 55h649l-10 -55h-651z" />
<glyph unicode="&#xb0;" horiz-adv-x="518" d="M41 1382q0 71 63 125q62 56 136 56q72 0 137 -56q63 -54 63 -125q0 -73 -63 -127q-64 -55 -137 -55t-136 57q-63 54 -63 125zM139 1382q0 -145 101 -145q100 0 100 145q0 146 -100 146q-101 0 -101 -146z" />
<glyph unicode="&#xb1;" horiz-adv-x="1017" d="M78 801l6 53h401v373l58 -4v-369h401l-4 -53h-397v-359l-58 4v355h-407zM86 236l8 55h842l-10 -55h-840z" />
<glyph unicode="&#xb2;" horiz-adv-x="849" d="M78 823v88q64 7 145 86l242 240q69 69 117.5 149t48.5 142q0 94 -58.5 145t-166.5 51q-107 0 -168 -53t-76 -129v-76h-43v213q14 0 22 4q49 35 119.5 55.5t138.5 20.5q157 0 253 -68t96 -178q0 -63 -60 -151t-153 -162l-304 -242q-8 -7 -31.5 -17.5t-31.5 -12.5l6 -13 q30 5 98 5h373q62 0 93.5 25t35.5 81l10 102l23 -2l-27 -303h-702z" />
<glyph unicode="&#xb3;" horiz-adv-x="851" d="M70 899v217h39v-90q22 -83 87.5 -139t178.5 -56q130 0 200 64.5t70 181.5q0 125 -63 194.5t-181 69.5h-139v21h113q103 0 159 50.5t56 139.5q0 82 -54.5 127t-158.5 45q-59 0 -100 -14.5t-64 -44t-33.5 -56t-19.5 -67.5v-43h-39v248h20v-29q0 -22 -2 -30l4 -2 q19 19 41 30q91 43 191 43q145 0 233 -55.5t88 -147.5q0 -74 -60.5 -130t-146.5 -70v-2q126 -13 204.5 -90.5t78.5 -186.5q0 -126 -109 -203t-288 -77q-78 2 -161.5 27.5t-143.5 74.5z" />
<glyph unicode="&#xb4;" horiz-adv-x="399" d="M51 1176l219 239q10 10 23 10q8 0 20 -8l35 -26q12 -7 12 -21q0 -4 -8 -16l-30 -31l-238 -172z" />
<glyph unicode="&#xb5;" horiz-adv-x="1372" d="M27 1395v18h129q51 0 95 9t77.5 35t33.5 65v8h19v-1219q0 -139 60 -215t161 -76q180 0 292 144.5t112 378.5v803q0 73 -20.5 90.5t-102.5 17.5h-37v19l348 8v-17q-8 -82 -8 -108v-1211q0 -73 19.5 -90.5t101.5 -17.5h39l-3 -19q-157 -6 -305 -36v16q11 113 11 117v32 q0 27 -2.5 127.5t-2.5 118.5v8h-16q-17 -107 -59.5 -189t-103.5 -131t-132.5 -73t-152.5 -24q-117 0 -205.5 39t-132.5 112l-11 -4q9 -27 9 -47v-272q0 -60 61 -60q41 0 68.5 -26.5t27.5 -63.5t-29.5 -63.5t-70.5 -26.5q-40 0 -69 26.5t-29 63.5v1671q0 62 -66 62h-106z" />
<glyph unicode="&#xb6;" horiz-adv-x="1157" d="M41 1186q0 118 91 201t220 83h768v-18q-59 0 -87 -3t-46.5 -18t-22 -37t-3.5 -69v-1567q0 -31 1.5 -49.5t8 -34.5t15.5 -23.5t28.5 -13t43 -7t62.5 -1.5v-18h-319v1692q0 86 -19.5 106.5t-101.5 20.5q-81 0 -100 -20t-19 -107v-1692h-321v18q57 0 85.5 3.5t47 18.5 t22.5 37.5t4 69.5v1145h-47q-129 0 -220 83t-91 200zM82 1186q0 -102 79 -174t191 -72h47v494h-47q-112 0 -191 -72.5t-79 -175.5z" />
<glyph unicode="&#xb7;" horiz-adv-x="440" d="M119 471q0 40 27.5 66t74.5 26q43 0 70.5 -25t27.5 -67q0 -41 -26 -65.5t-72 -24.5q-45 0 -73.5 24t-28.5 66z" />
<glyph unicode="&#xb8;" horiz-adv-x="837" d="M252 -465l8 37q100 0 170 51.5t70 128.5q0 43 -24 72t-64 29q-64 0 -95 -25l-28 4l37 172l41 -2l-29 -129q35 14 76 14q90 0 142 -45t52 -110q0 -84 -103 -140.5t-253 -56.5z" />
<glyph unicode="&#xb9;" horiz-adv-x="471" d="M41 823v21h47q65 0 80.5 13.5t15.5 70.5v592q0 59 4 77l-8 2q-10 -14 -43 -40l-69 -60l-17 12q67 61 121 122.5t77 94.5t23 39h31v-839q0 -57 15.5 -70.5t80.5 -13.5h33v-21h-391z" />
<glyph unicode="&#xba;" horiz-adv-x="970" d="M78 1137q0 183 112.5 295t296.5 112q182 0 294 -112t112 -295t-112 -295.5t-294 -112.5q-184 0 -296.5 112.5t-112.5 295.5zM211 1196q0 -209 72 -318.5t209 -109.5q131 0 200 78.5t70 230.5q0 210 -73 321t-210 111q-129 0 -198.5 -80.5t-69.5 -232.5z" />
<glyph unicode="&#xbb;" horiz-adv-x="1017" d="M78 168l258 203q56 48 88 71t55 27v8q-23 4 -55 27t-88 71l-258 201l82 76l407 -377v-6l-407 -375zM453 168l256 203q56 48 88.5 71t56.5 27v8q-24 4 -56.5 27t-88.5 71l-256 201l79 76l408 -377v-6l-408 -375z" />
<glyph unicode="&#xbc;" horiz-adv-x="2711" d="M70 373v14h110q60 0 75 16t15 80v723q0 50 4 90l-6 4q-24 -32 -43 -47l-112 -118l-15 8l68 78q203 236 203 280h22v-1016q0 -65 14.5 -80.5t75.5 -15.5h92v-12zM612 20l779 1493l39 -20l-775 -1493zM1104 238v36q0 1 31 54.5t77 139t98 185.5t103 215t82 207q14 41 14 64 q0 35 -71 35v16q129 0 169.5 10t65.5 55l13 -4l-537 -954h502v395h129v-395h112v-59h-112v-117q0 -69 18.5 -86t93.5 -17h29v-14h-467v14h82q77 0 96 17t19 86v117h-547z" />
<glyph unicode="&#xbd;" horiz-adv-x="2856" d="M78 430v86q16 2 59.5 30.5t77.5 69.5q171 207 262.5 358t91.5 269q0 106 -51 162.5t-149 56.5q-95 0 -150 -56.5t-67 -137.5v-49h-27v254h12v-62q45 36 107.5 57t124.5 21q142 0 228.5 -71.5t86.5 -190.5q0 -73 -39 -156t-111.5 -170t-149.5 -163t-179 -165 q-53 -46 -70 -53l4 -6q42 6 94 6h238q126 0 178 27t58 119l6 43l16 -2l-16 -277h-635zM612 20l779 1493l39 -20l-775 -1493zM1104 238v36q0 1 31 54.5t77 139t98 185.5t103 215t82 207q14 41 14 64q0 35 -71 35v16q129 0 169.5 10t65.5 55l13 -4l-537 -954h502v395h129v-395 h112v-59h-112v-117q0 -69 18.5 -86t93.5 -17h29v-14h-467v14h82q77 0 96 17t19 86v117h-547z" />
<glyph unicode="&#xbe;" horiz-adv-x="3057" d="M78 475v193h31v-47q8 -89 75.5 -159.5t177.5 -70.5q129 0 197 73t68 210q0 141 -68.5 231t-181.5 90h-154v27h125q102 0 162.5 68.5t60.5 171.5q0 97 -52.5 148.5t-153.5 51.5q-57 0 -100.5 -19t-68.5 -51t-38.5 -68t-16.5 -75v-49h-28v275h16v-62l4 -2q13 22 35 33 q78 41 194 45q141 0 227.5 -62t86.5 -163q0 -85 -61 -161t-142 -89v-2q122 -15 200.5 -114t78.5 -224q0 -139 -107.5 -224t-282.5 -85q-70 0 -147 28.5t-137 81.5zM612 20l779 1493l39 -20l-775 -1493zM1104 238v36q0 1 31 54.5t77 139t98 185.5t103 215t82 207q14 41 14 64 q0 35 -71 35v16q129 0 169.5 10t65.5 55l13 -4l-537 -954h502v395h129v-395h112v-59h-112v-117q0 -69 18.5 -86t93.5 -17h29v-14h-467v14h82q77 0 96 17t19 86v117h-547z" />
<glyph unicode="&#xbf;" horiz-adv-x="907" d="M72 270q0 74 44.5 146.5t107.5 130t126 111.5t107.5 109t44.5 103v183h61v-183q0 -62 -33 -127.5t-79.5 -121.5t-93.5 -111.5t-80 -118t-33 -121.5q0 -134 69 -203t203 -69q61 0 107.5 15.5t74.5 38.5t48.5 61t30 71.5t18.5 81.5v84h41v-393h-23v80q-58 -43 -138 -67.5 t-157 -26.5q-200 0 -323 90t-123 237zM432 1399q0 40 26.5 65t73.5 25q44 0 72.5 -24t28.5 -66q0 -38 -30 -65t-71 -27q-45 0 -72.5 25t-27.5 67z" />
<glyph unicode="&#xc0;" horiz-adv-x="1708" d="M18 0v18h35q39 0 66 31.5t59 95.5l633 1328h174v-25q0 -75 21 -119l530 -1184q37 -82 51 -98q25 -29 82 -29h19v-18h-431v18h173v5q-31 10 -70 96l-125 280h-893l-121 -254q-12 -32 -12 -47q0 -36 29 -58t79 -22h111v-18h-410zM360 436h859l-383 854q-19 39 -19 82h-20 q0 -24 -27 -82zM668 1833l26 20q12 9 23 9q14 0 22 -11l267 -284l-21 -17l-264 222z" />
<glyph unicode="&#xc1;" horiz-adv-x="1708" d="M18 0v18h35q39 0 66 31.5t59 95.5l633 1328h174v-25q0 -75 21 -119l530 -1184q37 -82 51 -98q25 -29 82 -29h19v-18h-431v18h173v5q-31 10 -70 96l-125 280h-893l-121 -254q-12 -32 -12 -47q0 -36 29 -58t79 -22h111v-18h-410zM360 436h859l-383 854q-19 39 -19 82h-20 q0 -24 -27 -82zM752 1567l266 284q11 11 22 11t23 -9l27 -20l-54 -61l-264 -222z" />
<glyph unicode="&#xc2;" horiz-adv-x="1708" d="M14 -4v18h35q39 0 66 31.5t59 95.5l633 1327h174v-24q0 -74 18 -119l533 -1184q4 -8 10 -22q30 -67 50 -86t73 -19h18v-18h-430v18h172v4q-11 4 -21 13t-20 28t-13.5 26t-14.5 30l-125 280h-893l-121 -254q-12 -24 -12 -47q0 -36 29 -58t79 -22h111v-18h-410zM356 432 h858l-383 854q-18 37 -18 82h-20q0 -24 -27 -82zM616 1657l232 205h61l228 -209l-33 -37l-111 100q-48 45 -80 80t-32 41h-9q0 -7 -31.5 -41t-78.5 -76l-111 -100z" />
<glyph unicode="&#xc3;" horiz-adv-x="1708" d="M18 2v18h35q39 0 66 31.5t59 95.5l633 1328h174v-25q0 -75 21 -119l530 -1184q37 -82 51 -98q25 -29 82 -29h19v-18h-431v18h173v5q-31 10 -70 96l-125 280h-893l-121 -254q-12 -32 -12 -47q0 -36 29 -58t79 -22h111v-18h-410zM360 438h859l-383 854q-19 39 -19 82h-20 q0 -24 -27 -82zM559 1649l19 63q22 75 55 103t82 28q39 0 91 -23.5t93.5 -51t88.5 -51t77 -23.5q56 0 78 78l16 61l37 -8l-18 -62v2q-23 -82 -58.5 -112.5t-87.5 -30.5q-50 0 -119 37.5t-132 75t-99 37.5q-51 0 -70 -68l-18 -64z" />
<glyph unicode="&#xc4;" horiz-adv-x="1708" d="M18 0v18h35q39 0 66 31.5t59 95.5l633 1328h174v-25q0 -75 21 -119l530 -1184q37 -82 51 -98q25 -29 82 -29h19v-18h-431v18h173v5q-31 10 -70 96l-125 280h-893l-121 -254q-12 -32 -12 -47q0 -36 29 -58t79 -22h111v-18h-410zM360 436h859l-383 854q-19 39 -19 82h-20 q0 -24 -27 -82zM559 1716q0 41 26 65.5t72 24.5q45 0 74 -24t29 -66q0 -40 -28 -65t-75 -25q-44 0 -71 24t-27 66zM997 1716q0 40 28 65t75 25q44 0 71 -24t27 -66q0 -41 -26 -65.5t-72 -24.5q-45 0 -74 24t-29 66z" />
<glyph unicode="&#xc5;" horiz-adv-x="1419" d="M16 2v37h35q87 0 125 108l475 1326q-53 23 -88 67.5t-35 95.5q0 72 62.5 127.5t136.5 55.5q75 0 138 -55.5t63 -127.5q0 -52 -35 -96t-88 -67v-13q0 -74 22 -131l310 -874l14 -37l94 -271q27 -73 49.5 -90.5t83.5 -17.5h19v-37h-367v21h125v4q-40 13 -70 92l-102 295 l-653 -13l-92 -254q-11 -19 -11 -43q0 -36 28.5 -58.5t78.5 -22.5h182v-21h-500zM346 457h621l-281 792q-14 46 -14 82h-17q0 -23 -22 -82zM586 1638q0 -47 44.5 -87t94.5 -40q51 0 95 38.5t44 88.5t-44 88.5t-95 38.5t-95 -38.5t-44 -88.5z" />
<glyph unicode="&#xc6;" horiz-adv-x="2043" d="M20 0v18h37q67 0 123 127l561 1219q15 38 15 53q0 31 -37 31v25h1020q62 0 84 -19h2l-6 94l20 2l39 -555h-39l-10 144q-9 161 -94 229t-252 68h-318v-2q49 -45 49 -107v-536h91q43 0 74 3.5t65 16.5t55 35.5t35 63.5t14 98v71h21v-657h-21v113q0 57 -14 98t-35 64 t-55 36.5t-65 17t-74 3.5h-91v-609q0 -61 -49 -106v-2h449q163 0 243.5 65t92.5 211l12 164h37l-39 -555l-21 2l7 94h-2q-18 -18 -82 -18h-1022l2 18h80q81 0 99.5 17.5t18.5 91.5v436h-626l-191 -418q-12 -32 -12 -47q0 -36 29 -58t79 -22h111v-18h-410zM430 600h608v848 h-161q-57 0 -95 -82z" />
<glyph unicode="&#xc7;" horiz-adv-x="1468" d="M76 741q0 222 98 392t276.5 263t411.5 93q240 0 414 -131q11 -11 24 -41l15 4q-6 24 -6 59l-4 150h20l21 -592l-41 -2l-7 197q-9 93 -75.5 167.5t-166 114t-210.5 39.5q-278 0 -424 -174t-146 -506q0 -367 152.5 -560.5t441.5 -193.5q163 0 303 76t199 203l39 -14 q-64 -147 -210 -224t-331 -77l-24 -111q32 14 76 14q89 0 140.5 -45t51.5 -110q0 -84 -102 -140.5t-252 -56.5l6 37q101 0 171.5 51.5t70.5 128.5q0 42 -24.5 71.5t-63.5 29.5q-64 0 -95 -25l-30 4l34 152q-340 12 -545.5 219t-205.5 538h-2z" />
<glyph unicode="&#xc8;" horiz-adv-x="1243" d="M41 0v18h78q82 0 101.5 17.5t19.5 91.5v1219q0 73 -19.5 90.5t-101.5 17.5h-78v19h899q63 0 82 -19h4l-8 94l20 2l41 -555h-41l-8 144q-10 161 -95 229t-253 68h-317v-2q49 -45 49 -107v-536h90q44 0 75 3.5t65 16.5t55 35.5t35 63.5t14 98v71h20v-657h-20v113 q0 57 -14 98t-35 64t-55 36.5t-65.5 17t-74.5 3.5h-90v-609q0 -61 -49 -106v-2h448q164 0 244 64.5t92 211.5l14 164h35l-39 -555l-18 2l6 94h-2q-21 -18 -84 -18h-1020zM444 1833l27 20q12 9 23 9q14 0 22 -11l266 -284l-20 -17l-264 222z" />
<glyph unicode="&#xc9;" horiz-adv-x="1243" d="M41 0v18h78q82 0 101.5 17.5t19.5 91.5v1219q0 73 -19.5 90.5t-101.5 17.5h-78v19h899q63 0 82 -19h4l-8 94l20 2l41 -555h-41l-8 144q-10 161 -95 229t-253 68h-317v-2q49 -45 49 -107v-536h90q44 0 75 3.5t65 16.5t55 35.5t35 63.5t14 98v71h20v-657h-20v113 q0 57 -14 98t-35 64t-55 36.5t-65.5 17t-74.5 3.5h-90v-609q0 -61 -49 -106v-2h448q164 0 244 64.5t92 211.5l14 164h35l-39 -555l-18 2l6 94h-2q-21 -18 -84 -18h-1020zM528 1567l267 284q11 11 22 11t23 -9l28 -20l-55 -61l-264 -222z" />
<glyph unicode="&#xca;" horiz-adv-x="1243" d="M37 -4v18h78q81 0 99.5 17.5t18.5 91.5v1218q0 74 -18.5 91.5t-99.5 17.5h-78v18h899q64 0 82 -18h2l-6 94l20 2l41 -555h-41l-8 144q-10 161 -95 229t-253 68h-318v-2q50 -46 50 -107v-537h90q44 0 75 3.5t65 16.5t55 36t34.5 64t13.5 98v71h21v-657h-21v112 q0 71 -19 117t-56 67.5t-75 28.5t-93 7h-90v-609q0 -60 -50 -106v-2h449q164 0 244 64.5t92 211.5l12 164h37l-39 -555l-20 2l8 94h-2q-21 -18 -84 -18h-1020zM395 1657l230 205h61l229 -209l-34 -37l-111 100q-113 105 -113 121h-8q0 -7 -31.5 -41t-78.5 -76l-111 -100z " />
<glyph unicode="&#xcb;" horiz-adv-x="1243" d="M41 0v18h78q82 0 101.5 17.5t19.5 91.5v1219q0 73 -19.5 90.5t-101.5 17.5h-78v19h899q63 0 82 -19h4l-8 94l20 2l41 -555h-41l-8 144q-10 161 -95 229t-253 68h-317v-2q49 -45 49 -107v-536h90q44 0 75 3.5t65 16.5t55 35.5t35 63.5t14 98v71h20v-657h-20v113 q0 57 -14 98t-35 64t-55 36.5t-65.5 17t-74.5 3.5h-90v-609q0 -61 -49 -106v-2h448q164 0 244 64.5t92 211.5l14 164h35l-39 -555l-18 2l6 94h-2q-21 -18 -84 -18h-1020zM336 1716q0 40 26.5 65t71.5 25t74 -24t29 -66q0 -40 -28 -65t-75 -25q-44 0 -71 24t-27 66zM774 1716 q0 40 28 65t75 25q45 0 71.5 -24t26.5 -66q0 -41 -26 -65.5t-72 -24.5q-45 0 -74 24t-29 66z" />
<glyph unicode="&#xcc;" horiz-adv-x="653" d="M41 0v18h78q82 0 101.5 17t19.5 90v1223q0 73 -19.5 89.5t-101.5 16.5h-78v19h573v-23h-77q-83 0 -103 -17t-20 -90v-1218q0 -73 20 -90t103 -17h77v-18h-573zM115 1833l26 20q15 9 23 9q14 0 22 -11l267 -284l-21 -17l-264 222z" />
<glyph unicode="&#xcd;" horiz-adv-x="653" d="M41 0v18h78q82 0 101.5 17t19.5 90v1223q0 73 -19.5 89.5t-101.5 16.5h-78v19h573v-23h-77q-83 0 -103 -17t-20 -90v-1218q0 -73 20 -90t103 -17h77v-18h-573zM201 1567l266 284q8 11 22 11q8 0 23 -9l27 -20l-54 -61l-264 -222z" />
<glyph unicode="&#xce;" horiz-adv-x="653" d="M37 -4v18h78q82 0 100 16.5t18 90.5v1222q0 74 -18 90.5t-100 16.5h-78v18h573v-22h-78q-82 0 -102 -17t-20 -90v-1218q0 -73 20 -90t102 -17h78v-18h-573zM66 1657l229 205h63l228 -209l-35 -37l-109 100q-48 45 -80 80t-32 41h-11q0 -7 -31.5 -41t-78.5 -76l-111 -100z " />
<glyph unicode="&#xcf;" horiz-adv-x="653" d="M6 1716q0 40 26.5 65t73.5 25q44 0 72.5 -24t28.5 -66q0 -40 -28 -65t-73 -25t-72.5 24t-27.5 66zM41 0v18h78q82 0 101.5 17t19.5 90v1223q0 73 -19.5 89.5t-101.5 16.5h-78v19h573v-23h-77q-83 0 -103 -17t-20 -90v-1218q0 -73 20 -90t103 -17h77v-18h-573zM446 1716 q0 40 28 65t73 25t72.5 -24t27.5 -66q0 -40 -26.5 -65t-73.5 -25q-44 0 -72.5 24t-28.5 66z" />
<glyph unicode="&#xd0;" horiz-adv-x="1628" d="M41 0v18h78q82 0 101.5 17.5t19.5 91.5v588h-162l12 61h150v551q0 77 -21 102t-100 25h-78v19h635q261 0 461 -92t309.5 -259t109.5 -385q0 -219 -109.5 -386.5t-309.5 -259t-461 -91.5h-635zM377 37h237q365 0 556.5 179.5t191.5 520.5t-191.5 520t-556.5 179h-237v-2 q37 -34 37 -97v-561h401l-10 -61h-391v-580q0 -62 -37 -96v-2z" />
<glyph unicode="&#xd1;" horiz-adv-x="1310" d="M41 2v18h57q82 0 102.5 18t20.5 91v1219q0 73 -20.5 90.5t-102.5 17.5h-57v19h344l619 -1033q38 -59 38 -75h15q-2 23 -2 86v874q0 73 -32 101t-114 28h-100v19h463v-19h-35q-82 0 -113.5 -28t-31.5 -101v-1364h-17q0 8 -3 18t-11.5 25.5t-13.5 24.5t-18 30.5t-17 28.5 l-699 1153q-45 76 -45 80h-12q4 -23 4 -88v-1106q0 -74 19.5 -91.5t101.5 -17.5h59v-18h-399zM322 1653l18 63q23 74 56.5 102.5t80.5 28.5q39 0 91 -23.5t94.5 -51t89.5 -51t77 -23.5q57 0 76 78l19 61l37 -8l-19 -62v2q-25 -82 -60 -112.5t-87 -30.5q-50 0 -119 37.5 t-131.5 75t-98.5 37.5q-52 0 -69 -68l-19 -63z" />
<glyph unicode="&#xd2;" d="M70 737q0 338 229.5 545t605.5 207q247 0 436 -93.5t292.5 -264.5t103.5 -394q0 -224 -103.5 -395t-292.5 -264.5t-436 -93.5q-249 0 -438.5 93.5t-293 264.5t-103.5 395zM266 774q0 -367 165.5 -560.5t481.5 -193.5q306 0 466.5 174t160.5 504q0 367 -165 560.5 t-478 193.5q-307 0 -469 -174t-162 -504zM805 1833l26 20q12 9 23 9q15 0 23 -11l266 -284l-21 -17l-264 222z" />
<glyph unicode="&#xd3;" d="M70 737q0 338 229.5 545t605.5 207q247 0 436 -93.5t292.5 -264.5t103.5 -394q0 -224 -103.5 -395t-292.5 -264.5t-436 -93.5q-249 0 -438.5 93.5t-293 264.5t-103.5 395zM266 774q0 -367 165.5 -560.5t481.5 -193.5q306 0 466.5 174t160.5 504q0 367 -165 560.5 t-478 193.5q-307 0 -469 -174t-162 -504zM780 1567l264 284q11 11 23 11q11 0 23 -9l28 -20l-55 -61l-262 -222z" />
<glyph unicode="&#xd4;" d="M66 733q0 338 229.5 545t605.5 207q247 0 436 -93.5t292.5 -264.5t103.5 -394q0 -224 -103.5 -395t-292.5 -264.5t-436 -93.5q-249 0 -438.5 93.5t-293 264.5t-103.5 395zM262 770q0 -367 165 -560.5t480 -193.5q306 0 467.5 174t161.5 504q0 367 -165 560.5t-478 193.5 q-309 0 -470 -174t-161 -504zM645 1657l229 205h64l227 -209l-35 -37l-110 100q-113 105 -113 121h-8q0 -6 -32 -40.5t-79 -76.5l-110 -100z" />
<glyph unicode="&#xd5;" d="M70 739q0 338 229.5 545t605.5 207q247 0 436 -93.5t292.5 -264.5t103.5 -394q0 -224 -103.5 -395t-292.5 -264.5t-436 -93.5q-249 0 -438.5 93.5t-293 264.5t-103.5 395zM266 776q0 -367 165.5 -560t481.5 -193q306 0 466.5 173.5t160.5 503.5q0 367 -165 560.5 t-478 193.5q-307 0 -469 -174t-162 -504zM586 1649l18 63q22 75 55 103t82 28q39 0 91 -23.5t94 -51t89 -51t77 -23.5q55 0 77 78l19 61l35 -8l-19 -62v2q-23 -82 -58 -112.5t-87 -30.5q-50 0 -119 37.5t-132 75t-99 37.5q-51 0 -70 -68l-16 -64z" />
<glyph unicode="&#xd6;" d="M70 737q0 338 229.5 545t605.5 207q247 0 436 -93.5t292.5 -264.5t103.5 -394q0 -224 -103.5 -395t-292.5 -264.5t-436 -93.5q-249 0 -438.5 93.5t-293 264.5t-103.5 395zM266 774q0 -367 165.5 -560.5t481.5 -193.5q306 0 466.5 174t160.5 504q0 367 -165 560.5 t-478 193.5q-307 0 -469 -174t-162 -504zM586 1716q0 40 26.5 65t71.5 25t73.5 -24t28.5 -66q0 -40 -27.5 -65t-74.5 -25q-44 0 -71 24t-27 66zM1026 1716q0 40 26.5 65t73.5 25q45 0 72 -24t27 -66q0 -41 -26.5 -65.5t-72.5 -24.5q-45 0 -72.5 24t-27.5 66z" />
<glyph unicode="&#xd7;" horiz-adv-x="845" d="M78 860l61 49l283 -262l291 268l53 -53l-293 -262l289 -256l-60 -49l-280 258l-279 -258l-53 53l279 252z" />
<glyph unicode="&#xd8;" d="M70 739q0 338 229.5 545t605.5 207q281 0 484 -121l167 203l50 -33l-166 -203q143 -100 221 -254t78 -346q0 -224 -103.5 -395t-292.5 -264.5t-436 -93.5q-285 0 -487 120l-170 -202l-47 35l166 202q-143 100 -221 254t-78 346zM270 776q0 -370 164 -561l903 1090 q-158 149 -436 149q-307 0 -469 -174t-162 -504zM475 172q166 -149 440 -149q306 0 467.5 173.5t161.5 503.5q0 370 -168 562z" />
<glyph unicode="&#xd9;" horiz-adv-x="1306" d="M41 1454v19h573v-19h-98q-82 0 -100.5 -17t-18.5 -91v-1084q0 -118 69.5 -180t203.5 -62q180 0 275 81t95 235v973q0 78 -25.5 111.5t-101.5 33.5h-84v19h439v-19h-58q-78 0 -103.5 -33t-25.5 -112v-973q0 -172 -105 -262t-306 -90t-325 97t-124 255v1010 q0 73 -20.5 90.5t-102.5 17.5h-57zM500 1833l26 20q15 9 23 9q14 0 22 -11l267 -284l-21 -17l-262 222z" />
<glyph unicode="&#xda;" horiz-adv-x="1306" d="M41 1454v19h573v-19h-98q-82 0 -100.5 -17t-18.5 -91v-1084q0 -118 69.5 -180t203.5 -62q180 0 275 81t95 235v973q0 78 -25.5 111.5t-101.5 33.5h-84v19h439v-19h-58q-78 0 -103.5 -33t-25.5 -112v-973q0 -172 -105 -262t-306 -90t-325 97t-124 255v1010 q0 73 -20.5 90.5t-102.5 17.5h-57zM586 1567l266 284q8 11 22 11q8 0 23 -9l27 -20l-54 -61l-264 -222z" />
<glyph unicode="&#xdb;" horiz-adv-x="1306" d="M37 1450v18h573v-18h-98q-82 0 -101.5 -17.5t-19.5 -91.5v-1083q0 -118 70.5 -180t202.5 -62q181 0 276.5 81t95.5 235v973q0 79 -25.5 112t-103.5 33h-82v18h439v-18h-60q-76 0 -101.5 -33.5t-25.5 -111.5v-973q0 -172 -106 -262t-307 -90q-200 0 -323.5 97t-123.5 255 v1009q0 73 -20.5 91t-102.5 18h-57zM451 1657l229 205h63l228 -209l-33 -37l-111 100q-48 45 -80 80t-32 41h-10q0 -6 -32 -40.5t-79 -76.5l-109 -100z" />
<glyph unicode="&#xdc;" horiz-adv-x="1306" d="M41 1454v19h573v-19h-98q-82 0 -100.5 -17t-18.5 -91v-1084q0 -118 69.5 -180t203.5 -62q180 0 275 81t95 235v973q0 78 -25.5 111.5t-101.5 33.5h-84v19h439v-19h-58q-78 0 -103.5 -33t-25.5 -112v-973q0 -172 -105 -262t-306 -90t-325 97t-124 255v1010 q0 73 -20.5 90.5t-102.5 17.5h-57zM391 1716q0 40 27 65t74 25q44 0 72 -24t28 -66q0 -40 -26.5 -65t-73.5 -25q-45 0 -73 24t-28 66zM831 1716q0 40 28 65t73 25t72.5 -24t27.5 -66q0 -40 -26.5 -65t-73.5 -25q-44 0 -72.5 24t-28.5 66z" />
<glyph unicode="&#xdd;" horiz-adv-x="1294" d="M23 1458v17h426v-17h-140v-4q28 -9 82 -99q7 -10 10 -16l291 -503q26 -46 29 -66h16q2 12 29 66l270 475q33 54 33 88q0 57 -96 57h-135v17h434v-17h-37q-49 0 -75.5 -28.5t-76.5 -116.5l-333 -586v-600q0 -74 19.5 -91.5t100.5 -17.5h166v-16h-776v18h193 q81 0 99.5 17.5t18.5 91.5v569l-352 619q-9 15 -24 42.5t-21 37t-18.5 26t-23 22t-26.5 10.5t-36 5h-47zM549 1571l266 284q11 11 23 11q11 0 22 -8l27 -21l-53 -61l-265 -222z" />
<glyph unicode="&#xde;" horiz-adv-x="1210" d="M41 0v18h78q82 0 101.5 17.5t19.5 91.5v1221q0 73 -19.5 89.5t-101.5 16.5h-78v19h573v-23h-77q-83 0 -103 -17t-20 -90v-55h172q255 0 410 -118t155 -312q0 -192 -155 -310t-410 -118h-172v-303q0 -73 20.5 -91t102.5 -18h55v-18h-551zM414 467h104q213 0 324.5 100 t111.5 291t-111.5 291t-324.5 100h-104v-782z" />
<glyph unicode="&#xdf;" horiz-adv-x="1232" d="M41 0v18h37q82 0 102.5 18t20.5 91v799h-142v20h142v234q0 76 33.5 137.5t88.5 97.5t119 55t131 19q152 0 247 -70t95 -196q0 -52 -26.5 -96.5t-64.5 -77.5t-76 -64.5t-64.5 -71.5t-26.5 -84q0 -40 29 -79.5t75.5 -75t102 -72t111.5 -76.5t102.5 -82.5t75.5 -96.5 t29 -111q0 -123 -89 -187.5t-257 -64.5q-83 0 -153.5 22t-113.5 55q-18 18 -20 25l-6 -2q2 -8 2 -25v-96h-23v506h43v-184q0 -109 74.5 -187t196.5 -78q83 0 132.5 44.5t49.5 117.5q0 48 -23.5 95.5t-61 88t-83 81.5t-91 83.5t-83 87t-61 99.5t-23.5 114q0 50 22 93.5 t54 76.5t63.5 65.5t53.5 73t22 85.5q0 103 -65 165t-171 62q-95 0 -144.5 -53.5t-49.5 -155.5v-1128q0 -27 8 -109v-14z" />
<glyph unicode="&#xe0;" horiz-adv-x="1214" d="M57 319q0 192 165.5 309t436.5 117h177v439q0 132 -68 200t-199 68q-162 0 -252 -76.5t-96 -201.5l-6 -127h-41l25 483h22l-6 -109q-8 -58 -10 -65l16 -4q2 6 14 23t21 24q134 90 311 90q218 0 333.5 -85.5t115.5 -246.5v-1012q0 -65 12.5 -84.5t61.5 -19.5q7 0 22 1 t23 1l39 2l2 -18q-135 -12 -250 -45v16q0 50 -21 168t-22 149h-23q-48 -174 -147 -252.5t-232 -78.5q-184 0 -304 93t-120 242zM252 319q0 -126 71 -203t187 -77q61 0 118 26t104 75.5t75.5 133t28.5 189.5v246h-164q-189 0 -304.5 -107.5t-115.5 -282.5zM369 1833l28 20 q12 9 23 9t22 -11l265 -284l-21 -17l-262 222z" />
<glyph unicode="&#xe1;" horiz-adv-x="1214" d="M57 319q0 192 165.5 309t436.5 117h177v439q0 132 -68 200t-199 68q-162 0 -252 -76.5t-96 -201.5l-6 -127h-41l25 483h22l-6 -109q-8 -58 -10 -65l16 -4q2 6 14 23t21 24q134 90 311 90q218 0 333.5 -85.5t115.5 -246.5v-1012q0 -65 12.5 -84.5t61.5 -19.5q7 0 22 1 t23 1l39 2l2 -18q-135 -12 -250 -45v16q0 50 -21 168t-22 149h-23q-48 -174 -147 -252.5t-232 -78.5q-184 0 -304 93t-120 242zM252 319q0 -126 71 -203t187 -77q61 0 118 26t104 75.5t75.5 133t28.5 189.5v246h-164q-189 0 -304.5 -107.5t-115.5 -282.5zM455 1567l266 284 q8 11 22 11q11 0 23 -9l27 -20l-54 -61l-264 -222z" />
<glyph unicode="&#xe2;" horiz-adv-x="1214" d="M51 315q0 192 166 309t438 117h176v439q0 132 -67.5 200t-198.5 68q-162 0 -252 -77t-96 -202l-8 -127h-41l27 484h22l-8 -109q-3 -49 -8 -65l16 -4q2 6 14 23t21 24q134 90 311 90q218 0 333.5 -85.5t115.5 -246.5v-1012q0 -65 12 -84.5t61 -19.5q7 0 21 1t24 1l39 2 l2 -18q-129 -12 -249 -46v17q0 50 -21 168t-22 149h-23q-48 -174 -147.5 -252.5t-231.5 -78.5q-185 0 -305.5 93t-120.5 242zM248 315q0 -126 71 -203t185 -77q61 0 118 26t104.5 75.5t76 133t28.5 189.5v246h-163q-190 0 -305 -107.5t-115 -282.5zM319 1657l230 205h63 l228 -209l-33 -37l-111 100q-48 45 -80 80t-32 41h-11q0 -6 -31 -40t-77 -77l-111 -100z" />
<glyph unicode="&#xe3;" horiz-adv-x="1214" d="M57 322q0 192 165.5 309t436.5 117h177v438q0 132 -68 200t-199 68q-162 0 -252 -76.5t-96 -201.5l-6 -127h-41l25 483h22l-6 -109q-8 -58 -10 -65l16 -4q2 6 14 23t21 24q134 90 311 90q218 0 333.5 -85.5t115.5 -246.5v-1012q0 -65 12.5 -84.5t61.5 -19.5q7 0 22 1 t23 1l39 2l2 -18q-135 -12 -250 -45v16q0 50 -21 168t-22 149h-23q-48 -174 -147 -252.5t-232 -78.5q-184 0 -304 93.5t-120 242.5zM252 322q0 -126 71 -203.5t187 -77.5q61 0 118 26t104 75.5t75.5 133t28.5 189.5v246h-164q-189 0 -304.5 -107t-115.5 -282zM262 1649 l17 63q23 75 56.5 103t82.5 28q39 0 91 -23.5t93.5 -51t88.5 -51t77 -23.5q56 0 78 78l16 61l37 -8l-18 -62v2q-23 -82 -59 -112.5t-87 -30.5t-120 37.5t-131.5 75t-98.5 37.5q-51 0 -70 -68l-18 -64z" />
<glyph unicode="&#xe4;" horiz-adv-x="1214" d="M57 319q0 192 165.5 309t436.5 117h177v439q0 132 -68 200t-199 68q-162 0 -252 -76.5t-96 -201.5l-6 -127h-41l25 483h22l-6 -109q-8 -58 -10 -65l16 -4q2 6 14 23t21 24q134 90 311 90q218 0 333.5 -85.5t115.5 -246.5v-1012q0 -65 12.5 -84.5t61.5 -19.5q7 0 22 1 t23 1l39 2l2 -18q-135 -12 -250 -45v16q0 50 -21 168t-22 149h-23q-48 -174 -147 -252.5t-232 -78.5q-184 0 -304 93t-120 242zM252 319q0 -126 71 -203t187 -77q61 0 118 26t104 75.5t75.5 133t28.5 189.5v246h-164q-189 0 -304.5 -107.5t-115.5 -282.5zM262 1716 q0 41 26 65.5t72 24.5q45 0 74 -24t29 -66q0 -40 -28 -65t-75 -25q-45 0 -71.5 24t-26.5 66zM700 1716q0 40 28 65t75 25q44 0 71 -24t27 -66q0 -40 -26.5 -65t-71.5 -25t-74 24t-29 66z" />
<glyph unicode="&#xe5;" horiz-adv-x="1214" d="M57 319q0 192 165.5 309t436.5 117h177v439q0 132 -68 200t-199 68q-162 0 -252 -76.5t-96 -201.5l-6 -127h-41l25 483h22l-6 -109q-8 -58 -10 -65l16 -4q2 6 14 23t21 24q134 90 311 90q218 0 333.5 -85.5t115.5 -246.5v-1012q0 -65 12.5 -84.5t61.5 -19.5q7 0 22 1 t23 1l39 2l2 -18q-135 -12 -250 -45v16q0 50 -21 168t-22 149h-23q-48 -174 -147 -252.5t-232 -78.5q-184 0 -304 93t-120 242zM252 319q0 -126 71 -203t187 -77q61 0 118 26t104 75.5t75.5 133t28.5 189.5v246h-164q-189 0 -304.5 -107.5t-115.5 -282.5zM383 1716 q0 72 62.5 127t136.5 55t137 -55t63 -127t-63 -127t-137 -55q-75 0 -137 56t-62 126zM442 1716q0 -47 45 -87t95 -40q51 0 95 38.5t44 88.5t-44 88.5t-95 38.5t-95.5 -38.5t-44.5 -88.5z" />
<glyph unicode="&#xe6;" horiz-adv-x="2461" d="M57 360q0 213 165.5 344.5t436.5 131.5h177l4 350q0 132 -68 201t-199 69q-160 0 -251 -77.5t-97 -202.5l-6 -127h-41l25 483h22l-6 -109q-3 -50 -10 -65l16 -4q2 7 14 23.5t23 23.5q134 90 309 90q193 0 307 -69t134 -199q109 128 277.5 197t381.5 69q197 0 360.5 -76.5 t262 -219.5t98.5 -325v-10q0 -25 -20.5 -42t-49.5 -17h-1282v-25q0 -361 170 -557.5t463 -196.5q225 0 398 83.5t272 234.5l31 -23q-105 -158 -289 -244.5t-422 -86.5q-276 0 -481.5 128.5t-290.5 350.5h-14q0 -209 -109.5 -344t-286.5 -135q-190 0 -307 103.5t-117 272.5z M256 362q0 -145 71 -233t187 -88q61 0 118 26t104 75.5t75.5 133t28.5 189.5v336h-164q-188 0 -304 -121.5t-116 -317.5zM1042 838l1135 14q16 0 16 18q0 263 -144.5 423.5t-383.5 160.5q-289 0 -448.5 -157.5t-174.5 -458.5z" />
<glyph unicode="&#xe7;" horiz-adv-x="1468" d="M76 741q0 222 98 392t276.5 263t411.5 93q240 0 414 -131q11 -11 24 -41l15 4q-6 24 -6 59l-4 150h20l21 -592l-41 -2l-7 197q-9 93 -75.5 167.5t-166 114t-210.5 39.5q-278 0 -424 -174t-146 -506q0 -367 152.5 -560.5t441.5 -193.5q163 0 303 76t199 203l39 -14 q-64 -147 -210 -224t-331 -77l-24 -111q32 14 76 14q89 0 140.5 -45t51.5 -110q0 -84 -102 -140.5t-252 -56.5l6 37q101 0 171.5 51.5t70.5 128.5q0 42 -24.5 71.5t-63.5 29.5q-64 0 -95 -25l-30 4l34 152q-340 12 -545.5 219t-205.5 538h-2z" />
<glyph unicode="&#xe8;" horiz-adv-x="1695" d="M70 741q0 222 103.5 392t292 263t435.5 93q196 0 359.5 -76.5t262.5 -219.5t99 -325v-10q0 -25 -20.5 -42t-49.5 -17h-1278v-25q0 -361 170 -557.5t463 -196.5q225 0 398 83.5t272 234.5l31 -23q-105 -158 -289 -244.5t-422 -86.5q-235 0 -423 93.5t-296 267t-108 396.5z M276 836l1135 14q16 0 16 18q0 263 -145 423.5t-383 160.5q-289 0 -448.5 -157.5t-174.5 -458.5zM657 1837l27 21q13 8 23 8q14 0 22 -11l266 -284l-20 -17l-262 222z" />
<glyph unicode="&#xe9;" horiz-adv-x="1695" d="M70 741q0 222 103.5 392t292 263t435.5 93q196 0 359.5 -76.5t262.5 -219.5t99 -325v-10q0 -25 -20.5 -42t-49.5 -17h-1278v-25q0 -361 170 -557.5t463 -196.5q225 0 398 83.5t272 234.5l31 -23q-105 -158 -289 -244.5t-422 -86.5q-235 0 -423 93.5t-296 267t-108 396.5z M276 836l1135 14q16 0 16 18q0 263 -145 423.5t-383 160.5q-289 0 -448.5 -157.5t-174.5 -458.5zM743 1571l267 284q8 11 22 11q10 0 23 -8l26 -21l-53 -61l-264 -222z" />
<glyph unicode="&#xea;" horiz-adv-x="1695" d="M66 737q0 222 103.5 392t292 263t435.5 93q196 0 359.5 -76.5t262.5 -219.5t99 -325v-10q0 -24 -21 -41.5t-49 -17.5h-1278v-25q0 -361 170 -557.5t463 -196.5q223 0 397 83.5t273 234.5l31 -23q-105 -158 -289 -244.5t-422 -86.5q-235 0 -423 93.5t-296 267t-108 396.5z M272 831l1133 15q18 0 18 18q0 263 -145 423.5t-383 160.5q-289 0 -448.5 -158t-174.5 -459zM608 1661l230 205h63l227 -209l-32 -37l-111 100q-113 105 -113 121h-10q0 -7 -31.5 -41t-78.5 -76l-111 -100z" />
<glyph unicode="&#xeb;" horiz-adv-x="1695" d="M70 741q0 222 103.5 392t292 263t435.5 93q196 0 359.5 -76.5t262.5 -219.5t99 -325v-10q0 -25 -20.5 -42t-49.5 -17h-1278v-25q0 -361 170 -557.5t463 -196.5q225 0 398 83.5t272 234.5l31 -23q-105 -158 -289 -244.5t-422 -86.5q-235 0 -423 93.5t-296 267t-108 396.5z M276 836l1135 14q16 0 16 18q0 263 -145 423.5t-383 160.5q-289 0 -448.5 -157.5t-174.5 -458.5zM549 1720q0 40 26.5 65t73.5 25q44 0 72.5 -24t28.5 -66q0 -40 -27 -65t-74 -25q-45 0 -72.5 24t-27.5 66zM989 1720q0 40 28 65t73 25t72.5 -24t27.5 -66q0 -40 -26.5 -65 t-73.5 -25q-44 0 -72.5 24t-28.5 66z" />
<glyph unicode="&#xec;" horiz-adv-x="653" d="M41 0v18h78q82 0 101.5 17t19.5 90v1223q0 73 -19.5 89.5t-101.5 16.5h-78v19h573v-23h-77q-83 0 -103 -17t-20 -90v-1218q0 -73 20 -90t103 -17h77v-18h-573zM115 1833l26 20q15 9 23 9q14 0 22 -11l267 -284l-21 -17l-264 222z" />
<glyph unicode="&#xed;" horiz-adv-x="653" d="M41 0v18h78q82 0 101.5 17t19.5 90v1223q0 73 -19.5 89.5t-101.5 16.5h-78v19h573v-23h-77q-83 0 -103 -17t-20 -90v-1218q0 -73 20 -90t103 -17h77v-18h-573zM201 1567l266 284q8 11 22 11q8 0 23 -9l27 -20l-54 -61l-264 -222z" />
<glyph unicode="&#xee;" horiz-adv-x="653" d="M37 -4v18h78q82 0 100 16.5t18 90.5v1222q0 74 -18 90.5t-100 16.5h-78v18h573v-22h-78q-82 0 -102 -17t-20 -90v-1218q0 -73 20 -90t102 -17h78v-18h-573zM66 1657l229 205h63l228 -209l-35 -37l-109 100q-48 45 -80 80t-32 41h-11q0 -7 -31.5 -41t-78.5 -76l-111 -100z " />
<glyph unicode="&#xef;" horiz-adv-x="653" d="M6 1716q0 40 26.5 65t73.5 25q44 0 72.5 -24t28.5 -66q0 -40 -28 -65t-73 -25t-72.5 24t-27.5 66zM41 0v18h78q82 0 101.5 17t19.5 90v1223q0 73 -19.5 89.5t-101.5 16.5h-78v19h573v-23h-77q-83 0 -103 -17t-20 -90v-1218q0 -73 20 -90t103 -17h77v-18h-573zM446 1716 q0 40 28 65t73 25t72.5 -24t27.5 -66q0 -40 -26.5 -65t-73.5 -25q-44 0 -72.5 24t-28.5 66z" />
<glyph unicode="&#xf0;" horiz-adv-x="1628" d="M41 0v18h78q82 0 101.5 17.5t19.5 91.5v588h-162l12 61h150v551q0 77 -21 102t-100 25h-78v19h635q261 0 461 -92t309.5 -259t109.5 -385q0 -219 -109.5 -386.5t-309.5 -259t-461 -91.5h-635zM377 37h237q365 0 556.5 179.5t191.5 520.5t-191.5 520t-556.5 179h-237v-2 q37 -34 37 -97v-561h401l-10 -61h-391v-580q0 -62 -37 -96v-2z" />
<glyph unicode="&#xf1;" horiz-adv-x="1435" d="M20 1364l175 33q72 13 118.5 51t46.5 98v8h19v-268q0 -179 -4 -215h14q11 68 37 133q50 131 161.5 209t250.5 78q180 0 279.5 -83.5t99.5 -225.5v-1053q0 -74 18.5 -91.5t99.5 -17.5h82v-18h-575v18h219v5q-13 11 -17 20.5t-4 32.5v1069q0 155 -52.5 232t-168.5 77 q-174 0 -289.5 -139.5t-115.5 -360.5v-827q0 -73 20.5 -91t102.5 -18h77v-18h-573l-2 18h78q82 0 101.5 17.5t19.5 91.5v1167q0 28 -21.5 47t-54.5 19h-6l-133 -10zM391 1649l19 63q23 74 56.5 102.5t80.5 28.5q39 0 91 -23.5t94.5 -51t89.5 -51t77 -23.5q57 0 76 78l18 61 l37 -8l-18 -62v2q-25 -82 -60.5 -112.5t-87.5 -30.5q-50 0 -118.5 37.5t-131 75t-98.5 37.5q-53 0 -70 -68l-18 -64z" />
<glyph unicode="&#xf2;" d="M70 737q0 338 229.5 545t605.5 207q247 0 436 -93.5t292.5 -264.5t103.5 -394q0 -224 -103.5 -395t-292.5 -264.5t-436 -93.5q-249 0 -438.5 93.5t-293 264.5t-103.5 395zM266 774q0 -367 165.5 -560.5t481.5 -193.5q306 0 466.5 174t160.5 504q0 367 -165 560.5 t-478 193.5q-307 0 -469 -174t-162 -504zM694 1837l27 21q11 8 22 8q15 0 23 -11l266 -284l-20 -17l-264 222z" />
<glyph unicode="&#xf3;" d="M70 737q0 338 229.5 545t605.5 207q247 0 436 -93.5t292.5 -264.5t103.5 -394q0 -224 -103.5 -395t-292.5 -264.5t-436 -93.5q-249 0 -438.5 93.5t-293 264.5t-103.5 395zM266 774q0 -367 165.5 -560.5t481.5 -193.5q306 0 466.5 174t160.5 504q0 367 -165 560.5 t-478 193.5q-307 0 -469 -174t-162 -504zM780 1571l264 284q11 11 23 11t23 -8l28 -21l-55 -61l-262 -222z" />
<glyph unicode="&#xf4;" d="M66 733q0 338 229.5 545t605.5 207q247 0 436 -93.5t292.5 -264.5t103.5 -394q0 -224 -103.5 -395t-292.5 -264.5t-436 -93.5q-249 0 -438.5 93.5t-293 264.5t-103.5 395zM262 770q0 -367 165 -560.5t480 -193.5q306 0 467.5 174t161.5 504q0 367 -165 560.5t-478 193.5 q-309 0 -470 -174t-161 -504zM645 1661l229 205h64l227 -209l-35 -37l-110 100q-113 105 -113 121h-8q0 -6 -32 -40.5t-79 -76.5l-110 -100z" />
<glyph unicode="&#xf5;" d="M70 739q0 338 229.5 545t605.5 207q247 0 436 -93.5t292.5 -264.5t103.5 -394q0 -224 -103.5 -395t-292.5 -264.5t-436 -93.5q-249 0 -438.5 93.5t-293 264.5t-103.5 395zM266 776q0 -367 165.5 -560t481.5 -193q306 0 466.5 173.5t160.5 503.5q0 367 -165 560.5 t-478 193.5q-307 0 -469 -174t-162 -504zM586 1653l18 63q22 75 55 103t82 28q39 0 91 -23.5t94 -51t89 -51t77 -23.5q55 0 77 78l19 61l35 -8l-19 -62v2q-23 -82 -58 -112.5t-87 -30.5q-50 0 -119 37.5t-132 75t-99 37.5q-51 0 -70 -68l-16 -63z" />
<glyph unicode="&#xf6;" d="M70 737q0 338 229.5 545t605.5 207q247 0 436 -93.5t292.5 -264.5t103.5 -394q0 -224 -103.5 -395t-292.5 -264.5t-436 -93.5q-249 0 -438.5 93.5t-293 264.5t-103.5 395zM266 774q0 -367 165.5 -560.5t481.5 -193.5q306 0 466.5 174t160.5 504q0 367 -165 560.5 t-478 193.5q-307 0 -469 -174t-162 -504zM586 1720q0 40 26.5 65t71.5 25t73.5 -24t28.5 -66q0 -40 -27.5 -65t-74.5 -25q-44 0 -71 24t-27 66zM1026 1720q0 40 26.5 65t73.5 25q45 0 72 -24t27 -66q0 -41 -26.5 -65.5t-72.5 -24.5q-45 0 -72.5 24t-27.5 66z" />
<glyph unicode="&#xf7;" horiz-adv-x="1048" d="M-270 616v21h1239l-8 -74h-883l10 53h-358zM430 299q0 41 26.5 66.5t71.5 25.5t74 -25t29 -67q0 -40 -28 -65t-75 -25q-44 0 -71 24t-27 66zM430 899q0 41 26.5 66.5t71.5 25.5q53 0 80 -30v339h23v-401q0 -40 -28 -65t-75 -25q-44 0 -71 24t-27 66z" />
<glyph unicode="&#xf8;" d="M70 739q0 338 229.5 545t605.5 207q281 0 484 -121l167 203l50 -33l-166 -203q143 -100 221 -254t78 -346q0 -224 -103.5 -395t-292.5 -264.5t-436 -93.5q-285 0 -487 120l-170 -202l-47 35l166 202q-143 100 -221 254t-78 346zM270 776q0 -370 164 -561l903 1090 q-158 149 -436 149q-307 0 -469 -174t-162 -504zM475 172q166 -149 440 -149q306 0 467.5 173.5t161.5 503.5q0 370 -168 562z" />
<glyph unicode="&#xf9;" horiz-adv-x="1372" d="M27 1395v18h129q51 0 95 9t77.5 35t33.5 65v8h19v-1219q0 -139 60 -215t161 -76q180 0 292 144.5t112 378.5v803q0 73 -20.5 90.5t-102.5 17.5h-37v19l348 8v-17q-8 -82 -8 -108v-1211q0 -73 19.5 -90.5t101.5 -17.5h39l-3 -19q-157 -6 -305 -36v16q11 113 11 117v32 q0 27 -2.5 127.5t-2.5 118.5v8h-16q-17 -107 -59.5 -189t-103.5 -131t-132.5 -73t-152.5 -24q-171 0 -276 81t-105 228v1040q0 62 -66 62h-106zM457 1833l28 20q12 9 23 9q12 0 20 -11l267 -284l-21 -17l-262 222z" />
<glyph unicode="&#xfa;" horiz-adv-x="1372" d="M27 1395v18h129q51 0 95 9t77.5 35t33.5 65v8h19v-1219q0 -139 60 -215t161 -76q180 0 292 144.5t112 378.5v803q0 73 -20.5 90.5t-102.5 17.5h-37v19l348 8v-17q-8 -82 -8 -108v-1211q0 -73 19.5 -90.5t101.5 -17.5h39l-3 -19q-157 -6 -305 -36v16q11 113 11 117v32 q0 27 -2.5 127.5t-2.5 118.5v8h-16q-17 -107 -59.5 -189t-103.5 -131t-132.5 -73t-152.5 -24q-171 0 -276 81t-105 228v1040q0 62 -66 62h-106zM543 1567l266 284q8 11 22 11q11 0 23 -9l27 -20l-54 -61l-264 -222z" />
<glyph unicode="&#xfb;" horiz-adv-x="1372" d="M23 1391v18h129q51 0 95 9t77.5 35t33.5 65v8h19v-1219q0 -139 60 -215t159 -76q181 0 292 144t111 379v802q0 74 -19.5 91.5t-100.5 17.5h-39v18l350 9v-17q-10 -102 -10 -108v-1211q0 -73 20.5 -90.5t102.5 -17.5h36l-2 -19q-150 -6 -303 -37v17q8 82 8 117v32 q0 27 -1 127.5t-1 118.5v8h-18q-34 -210 -156 -313.5t-293 -103.5q-169 0 -273.5 81t-104.5 228v1040q0 62 -66 62h-106zM408 1657l229 205h63l228 -209l-33 -37l-111 100q-48 45 -80 80t-32 41h-10q0 -6 -32 -40.5t-79 -76.5l-109 -100z" />
<glyph unicode="&#xfc;" horiz-adv-x="1372" d="M27 1395v18h129q51 0 95 9t77.5 35t33.5 65v8h19v-1219q0 -139 60 -215t161 -76q180 0 292 144.5t112 378.5v803q0 73 -20.5 90.5t-102.5 17.5h-37v19l348 8v-17q-8 -82 -8 -108v-1211q0 -73 19.5 -90.5t101.5 -17.5h39l-3 -19q-157 -6 -305 -36v16q11 113 11 117v32 q0 27 -2.5 127.5t-2.5 118.5v8h-16q-17 -107 -59.5 -189t-103.5 -131t-132.5 -73t-152.5 -24q-171 0 -276 81t-105 228v1040q0 62 -66 62h-106zM348 1716q0 40 27 65t74 25q45 0 72.5 -24t27.5 -66q0 -40 -26.5 -65t-73.5 -25q-45 0 -73 24t-28 66zM788 1716q0 40 28 65 t75 25q44 0 71 -24t27 -66q0 -40 -26.5 -65t-71.5 -25t-74 24t-29 66z" />
<glyph unicode="&#xfd;" horiz-adv-x="1294" d="M23 1458v17h426v-17h-140v-4q28 -9 82 -99q7 -10 10 -16l291 -503q26 -46 29 -66h16q2 12 29 66l270 475q33 54 33 88q0 57 -96 57h-135v17h434v-17h-37q-49 0 -75.5 -28.5t-76.5 -116.5l-333 -586v-600q0 -74 19.5 -91.5t100.5 -17.5h166v-16h-776v18h193 q81 0 99.5 17.5t18.5 91.5v569l-352 619q-9 15 -24 42.5t-21 37t-18.5 26t-23 22t-26.5 10.5t-36 5h-47zM549 1571l266 284q11 11 23 11q11 0 22 -8l27 -21l-53 -61l-265 -222z" />
<glyph unicode="&#xfe;" horiz-adv-x="1210" d="M41 0v18h78q82 0 101.5 17.5t19.5 91.5v1221q0 73 -19.5 89.5t-101.5 16.5h-78v19h573v-23h-77q-83 0 -103 -17t-20 -90v-55h172q255 0 410 -118t155 -312q0 -192 -155 -310t-410 -118h-172v-303q0 -73 20.5 -91t102.5 -18h55v-18h-551zM414 467h104q213 0 324.5 100 t111.5 291t-111.5 291t-324.5 100h-104v-782z" />
<glyph unicode="&#xff;" horiz-adv-x="1294" d="M23 1458v17h426v-17h-140v-4q28 -9 82 -99q7 -10 10 -16l291 -503q26 -46 29 -66h16q2 12 29 66l270 475q33 54 33 88q0 57 -96 57h-135v17h434v-17h-37q-49 0 -75.5 -28.5t-76.5 -116.5l-333 -586v-600q0 -74 19.5 -91.5t100.5 -17.5h166v-16h-776v18h193 q81 0 99.5 17.5t18.5 91.5v569l-352 619q-9 15 -24 42.5t-21 37t-18.5 26t-23 22t-26.5 10.5t-36 5h-47zM356 1720q0 41 26.5 65.5t72.5 24.5q45 0 73.5 -24t28.5 -66q0 -40 -27.5 -65t-74.5 -25q-44 0 -71.5 24t-27.5 66zM795 1720q0 40 27.5 65t74.5 25q44 0 71 -24 t27 -66q0 -41 -26 -65.5t-72 -24.5q-45 0 -73.5 24t-28.5 66z" />
<glyph unicode="&#x152;" horiz-adv-x="2111" d="M70 737q0 223 104 390t293 256.5t438 89.5h901q62 0 84 -19h2l-6 94l21 2l39 -555h-39l-11 144q-9 161 -94 229t-252 68h-317v-2q49 -45 49 -107v-536h90q44 0 75 3.5t65 16.5t55 35.5t35 63.5t14 98v71h20v-657h-20v113q0 57 -14 98t-35 64t-55 36.5t-65.5 17t-74.5 3.5 h-90v-609q0 -61 -49 -106v-2h448q163 0 243.5 65t92.5 211l13 164h36l-38 -555l-21 2l6 94h-2q-18 -18 -82 -18h-1024q-250 0 -438.5 89t-292.5 256.5t-104 391.5zM266 774q0 -365 164.5 -551t482.5 -186h74q82 0 100.5 17t18.5 91v1182q0 74 -19 91.5t-100 17.5h-90 q-309 0 -470 -167t-161 -495z" />
<glyph unicode="&#x153;" horiz-adv-x="2111" d="M70 737q0 223 104 390t293 256.5t438 89.5h901q62 0 84 -19h2l-6 94l21 2l39 -555h-39l-11 144q-9 161 -94 229t-252 68h-317v-2q49 -45 49 -107v-536h90q44 0 75 3.5t65 16.5t55 35.5t35 63.5t14 98v71h20v-657h-20v113q0 57 -14 98t-35 64t-55 36.5t-65.5 17t-74.5 3.5 h-90v-609q0 -61 -49 -106v-2h448q163 0 243.5 65t92.5 211l13 164h36l-38 -555l-21 2l6 94h-2q-18 -18 -82 -18h-1024q-250 0 -438.5 89t-292.5 256.5t-104 391.5zM266 774q0 -365 164.5 -551t482.5 -186h74q82 0 100.5 17t18.5 91v1182q0 74 -19 91.5t-100 17.5h-90 q-309 0 -470 -167t-161 -495z" />
<glyph unicode="&#x178;" horiz-adv-x="1294" d="M23 1458v17h426v-17h-140v-4q28 -9 82 -99q7 -10 10 -16l291 -503q26 -46 29 -66h16q2 12 29 66l270 475q33 54 33 88q0 57 -96 57h-135v17h434v-17h-37q-49 0 -75.5 -28.5t-76.5 -116.5l-333 -586v-600q0 -74 19.5 -91.5t100.5 -17.5h166v-16h-776v18h193 q81 0 99.5 17.5t18.5 91.5v569l-352 619q-9 15 -24 42.5t-21 37t-18.5 26t-23 22t-26.5 10.5t-36 5h-47zM356 1720q0 41 26.5 65.5t72.5 24.5q45 0 73.5 -24t28.5 -66q0 -40 -27.5 -65t-74.5 -25q-44 0 -71.5 24t-27.5 66zM795 1720q0 40 27.5 65t74.5 25q44 0 71 -24 t27 -66q0 -41 -26 -65.5t-72 -24.5q-45 0 -73.5 24t-28.5 66z" />
<glyph unicode="&#x2c6;" horiz-adv-x="645" d="M324 1221l231 204h61l230 -208l-35 -37l-111 100q-48 45 -80 80t-32 41h-8q0 -6 -32 -40.5t-79 -76.5l-111 -100z" />
<glyph unicode="&#x2dc;" horiz-adv-x="817" d="M446 1212l19 64q22 75 55 103t82 28t117.5 -37.5t131.5 -75t101 -37.5q56 0 78 78l19 62l34 -8l-18 -62v2q-23 -82 -58 -112.5t-87 -30.5q-40 0 -92.5 23.5t-94.5 51t-88.5 51t-75.5 23.5q-50 0 -69 -67l-19 -64z" />
<glyph unicode="&#x2000;" horiz-adv-x="949" />
<glyph unicode="&#x2001;" horiz-adv-x="1898" />
<glyph unicode="&#x2002;" horiz-adv-x="949" />
<glyph unicode="&#x2003;" horiz-adv-x="1898" />
<glyph unicode="&#x2004;" horiz-adv-x="632" />
<glyph unicode="&#x2005;" horiz-adv-x="474" />
<glyph unicode="&#x2006;" horiz-adv-x="316" />
<glyph unicode="&#x2007;" horiz-adv-x="316" />
<glyph unicode="&#x2008;" horiz-adv-x="237" />
<glyph unicode="&#x2009;" horiz-adv-x="379" />
<glyph unicode="&#x200a;" horiz-adv-x="105" />
<glyph unicode="&#x2010;" horiz-adv-x="638" d="M41 563l8 55h553l-12 -55h-549z" />
<glyph unicode="&#x2011;" horiz-adv-x="638" d="M41 563l8 55h553l-12 -55h-549z" />
<glyph unicode="&#x2012;" horiz-adv-x="638" d="M41 563l8 55h553l-12 -55h-549z" />
<glyph unicode="&#x2013;" horiz-adv-x="1021" d="M41 563v55h944v-55h-944z" />
<glyph unicode="&#x2014;" horiz-adv-x="2045" d="M41 563v55h1966v-55h-1966z" />
<glyph unicode="&#x2018;" horiz-adv-x="440" d="M119 1237q0 105 47 160.5t135 93.5l16 -31q-104 -45 -137 -114q-10 -26 -18 -37l12 -6q16 24 45 24q100 0 100 -90q0 -92 -100 -92q-46 0 -73 25.5t-27 66.5z" />
<glyph unicode="&#x2019;" horiz-adv-x="440" d="M119 1399q0 44 26.5 68t75.5 24q44 0 71 -25.5t27 -66.5q0 -56 -13.5 -98t-40.5 -71t-56.5 -48t-71.5 -37l-16 31q103 43 139 114q12 31 16 37l-10 6q-20 -24 -45 -24q-102 0 -102 90z" />
<glyph unicode="&#x201a;" horiz-adv-x="440" d="M119 72q0 44 26.5 68t75.5 24q44 0 71 -25.5t27 -66.5q0 -56 -13.5 -98t-40.5 -71t-56.5 -48t-71.5 -37l-16 30q102 43 139 115q12 31 16 37l-10 6q-20 -24 -45 -24q-102 0 -102 90z" />
<glyph unicode="&#x201c;" horiz-adv-x="784" d="M119 1237q0 105 47 160.5t135 93.5l16 -31q-104 -45 -137 -114q-10 -26 -18 -37l12 -6q16 24 45 24q100 0 100 -90q0 -92 -100 -92q-46 0 -73 25.5t-27 66.5zM465 1237q0 56 13.5 98t40.5 71t56.5 48t71.5 37l15 -31q-106 -46 -138 -114q-12 -31 -16 -37l10 -6 q16 24 45 24q101 0 101 -90q0 -44 -26 -68t-75 -24q-45 0 -71.5 25t-26.5 67z" />
<glyph unicode="&#x201d;" horiz-adv-x="784" d="M119 1399q0 44 26.5 68t75.5 24q44 0 71 -25.5t27 -66.5q0 -56 -13.5 -98t-40.5 -71t-56.5 -48t-71.5 -37l-16 31q103 43 139 114q12 31 16 37l-10 6q-20 -24 -45 -24q-102 0 -102 90zM465 1399q0 92 100 92q45 0 72 -25t27 -67q0 -105 -47 -160.5t-136 -93.5l-14 31 q104 45 137 114q11 29 19 37l-13 6q-16 -24 -45 -24q-100 0 -100 90z" />
<glyph unicode="&#x201e;" horiz-adv-x="784" d="M119 72q0 44 26.5 68t75.5 24q44 0 71 -25.5t27 -66.5q0 -56 -13.5 -98t-40.5 -71t-56.5 -48t-71.5 -37l-16 30q102 43 139 115q12 31 16 37l-10 6q-20 -24 -45 -24q-102 0 -102 90zM465 72q0 92 100 92q45 0 72 -25t27 -67q0 -105 -47 -160.5t-136 -93.5l-14 30 q104 45 137 115q11 29 19 37l-13 6q-16 -24 -45 -24q-100 0 -100 90z" />
<glyph unicode="&#x2022;" horiz-adv-x="559" d="M119 737q0 60 47.5 102t112.5 42q66 0 113.5 -42t47.5 -102t-47.5 -102.5t-113.5 -42.5q-65 0 -112.5 42.5t-47.5 102.5z" />
<glyph unicode="&#x2026;" horiz-adv-x="1277" d="M119 72q0 40 27.5 66t74.5 26q43 0 70.5 -25t27.5 -67q0 -41 -26 -65.5t-72 -24.5q-45 0 -73.5 24t-28.5 66zM518 72q0 40 27.5 66t72.5 26t73 -25t28 -67q0 -40 -27 -65t-74 -25q-44 0 -72 24t-28 66zM920 72q0 40 27.5 66t72.5 26t72.5 -25t27.5 -67q0 -40 -26.5 -65 t-73.5 -25q-44 0 -72 24t-28 66z" />
<glyph unicode="&#x202f;" horiz-adv-x="379" />
<glyph unicode="&#x2039;" horiz-adv-x="636" d="M72 469v6l407 377l82 -76l-258 -201q-100 -91 -143 -98v-8q43 -7 143 -98l258 -203l-82 -74z" />
<glyph unicode="&#x203a;" horiz-adv-x="636" d="M78 168l258 203q56 48 88 71t55 27v8q-23 4 -55 27t-88 71l-258 201l82 76l407 -377v-6l-407 -375z" />
<glyph unicode="&#x205f;" horiz-adv-x="474" />
<glyph unicode="&#x20ac;" horiz-adv-x="1603" d="M63 594l11 55h147q-4 62 -4 92q0 26 4 80h-125l13 56h116q41 280 251.5 446t527.5 166q240 0 411 -131q19 -19 25 -41l16 4q-8 21 -8 59l-4 150h20l21 -592l-41 -2l-6 190q-6 89 -72 165.5t-168 119.5t-213 43q-255 0 -399 -147t-166 -430h686l-16 -54h-680v-49 q0 -45 4 -123h635l-13 -55h-614q35 -281 183.5 -427t400.5 -146q163 0 302.5 75.5t198.5 202.5l39 -14q-64 -148 -210.5 -225.5t-331.5 -77.5q-313 0 -522 165t-255 445h-164z" />
<glyph unicode="&#x2122;" horiz-adv-x="1540" d="M43 1405l14 240l19 -3l-6 -114h495l-8 114l16 3l19 -238l-21 -2q-3 59 -17.5 72.5t-78.5 13.5h-108v-494q0 -29 8 -36t39 -7h84v-20h-377v18h102q32 0 39.5 7t7.5 36v496h-104q-64 0 -82 -14.5t-21 -71.5h-20zM557 934l2 20h82q31 0 38.5 8t10.5 39l35 476q0 3 1 7.5 t1 6.5q0 15 -8 18.5t-37 3.5h-35v19h170l203 -477q3 -7 12 -14.5t16 -13t7 -7.5h6q0 1 -4 8t-5.5 13.5t1.5 13.5l247 477h193v-19h-55q-30 0 -38.5 -5.5t-8.5 -26.5q0 -3 1 -9.5t1 -9.5l32 -458q1 -35 10.5 -42.5t47.5 -7.5h20v-20h-315v20h90q35 0 45 6t10 25v8l-30 412 q0 4 -1.5 16.5t-1.5 16.5h-6l-14 -33l-223 -473h-58l-217 463q-14 22 -14 32h-6v-32l-35 -402q-1 -28 5.5 -33.5t39.5 -5.5h55v-20h-270z" />
<glyph unicode="&#x25fc;" horiz-adv-x="1474" d="M0 0v1475h1475v-1475h-1475z" />
</font>
</defs>
</svg>
